<mxfile host="app.diagrams.net" agent="Mozilla/5.0 (X11; CrOS x86_64 14541.0.0) AppleWebKit/537.36 (KHTML, like Gecko) Chrome/130.0.0.0 Safari/537.36" version="24.8.4">
  <diagram name="PÃ¡gina-1" id="A2v4atU-2gQrKutJaktP">
    <mxGraphModel dx="1035" dy="541" grid="1" gridSize="10" guides="1" tooltips="1" connect="1" arrows="1" fold="1" page="1" pageScale="1" pageWidth="827" pageHeight="1169" math="0" shadow="0">
      <root>
        <mxCell id="0" />
        <mxCell id="1" parent="0" />
        <mxCell id="G1GQrUk6o97cC7J-lh7t-4" value="" style="shape=image;verticalLabelPosition=bottom;labelBackgroundColor=default;verticalAlign=top;aspect=fixed;imageAspect=0;image=data:image/png,iVBORw0KGgoAAAANSUhEUgAAAO0AAADVCAYAAAC7ZHdPAAAAAXNSR0IArs4c6QAAIABJREFUeF7snQe4XWWV/n+7n3JbKgkJEHoXUbF3x15QioADOrZRwRlnxt7HhoiCvQuWUfSPXUEQUSwzFkQEQi8SqgQIKffec87uf9/17XPvDZZBdChJzvOEXHJP29/+1rfWete73uWxqTwCDg6D4OR2PHJB1h/8vDsyOjno9a6k4oZe2bsUuB5IN5XL3XIdm+8KeJvEpXt8FTiIGjx8QnwqIPRDqqokikLSPKWiYnxi7KJev/e9LC1+DFwOXLlJrMGWi9hsVuDebrStJEmuTdNyUeAH+J5HVRYE+NSU1NT4YAYceAF+EDAoBrJt4jgmyzK70a1WfGmWZV/wff67KPgV4H6x5bFlBe6BK3BvNtqtW63WDekgw9dV1BVRBEWOGWocQZ4j12tGGviQlxBGUJZQ1hAE7o4UsuoK/ND9jpo1cRx/Isuqn0Bxlp5yD7x3W77SZroC90qjbbfby/v9/Dp9+YDCjE9Gmubwilc8kSc95RHsvvsKFiwcpa5rNqzvcc6vV7Jy5e+45OLrOOlLP6eSJdfOoCsPQg+KGsLAGW5tP4fkpew1+GXSjv9f2u9/E7hmM90rWy77HrIC90KjjXcPA//ioiwJgwK/qlm4EN70ppfwTy84hCRJyfL1RFGO55ekacp0b8DChdsAI6R9jySex5VX3MCll17B2b/+Dd87/Qecf/6tzoLlmeV5axdW6xFGEXmeE0Q+pdyyx7sI+QoZF95D7uOWr7EZrcC9ymjjON4jy+qLdH/GRlpM9yY55t2H8qrXHAX0WLvmJibG5V1zqiKnLHOSVos8y4iiiLQoicIW/YH+PzFvGkQRnhexZs0055x9ET//+Xl84XPf4tY1UJVQyOvKkBuvrPDawuka4sTC8aOrgk8DqzajfbPlUu/GFbg3Ge3ueFzs4VkonBU1x77nxbzqVc9m/dpVdJIWkcClNMUXhuz7FhqXZUkUB2bAaZ7R6bQoUVJbWVis53lETE1njE9sQ57VeHWH665by+nfO4vTTj+L759xnp5uj6H39QKoGuOVAYehf1NRVG8A/mtLDnw37ujN4KPvLUa7TRByraWhFUQh/Ou/P4n3HPMait4afC/D0y8tvlX0OjSt4d/uTspjDv92z9dDsNXwlS6/pQ6oCaGOwG8zNVXw4x+fzQmfPomzfnyVgV36DpkBXaEDtfyAUq5ZGXDgfbgs8/cB124Ge2jLJd7FK3BvMNpxPNY5Y3DW9fRn7MyXTv4Akd/HG+RzjLRufm6M1dvYaKn9GcOVsTrDHRaFKmpfoFNN3byuIiAKu2a0YTROu7OYG69bw9e+eionffHr/Pa81Waw7W7M9LSrEvm+OXE8z8PzwpOrKnwV9K+7i+/rlo/bhFfgnm60ER7Z2EiX6clpYUQsXAS/W3UmfriWqpwkJmyMb07wOmOstzPaxqs61+o8rN/8jadwuan9NB5bnjlNM1rtUWovIs8ESrUI4zHS6T43rd7ACZ//FkcffXJTdnJ5sEUEInp4sQyXsqreDQOFzlseW1bgb16Be7TRJq3g5mxQLpJ5hbpUD66//lRGxzKSkZLB1G1EQeuPjdaee3uDbdZqaKSNh3WmO8fgm9C6auJnP44o88KM0QuUJ3sGRAXKm6MRwngR69b3OO+3F/O+Yz/MD76/Cl8lqNhnelocrBD5/+bxAsg/+zfftS1vsFmvwD3YaOPT49B7Yl2klj/Klk760lvY/1kPIRvcTF0WJCMdqkLMp+bx5wx17i2eMdom9/UUErtcdOOHWxqBWUEY288q+yicjhL9v0dZFgwy54nLIiSKJ7j+2nUc+56P8alP/cgRNgJH6hgeC03t95XAB+bgWpv1Jtxy8X/dCtwjjTZJRj6WpfnLAoQEC5mFI4+8L+/94JshvwkiHzakkIxQVaIs6lmzPvMvLsEco3XeuDCvfHtgavgeeVYSBAFBqBzVoygdIq2fw9DH8yv7OS888tQ3w43aC7h19RQnnfQtXv3qTxAlkA6afLd0CHS7ndDrp68D3rvFeP+6Tbu5P/ueaLTP9/FOFH/YozTa4S67wfe+fyRJsoaRJKDMa9rjO0AvhmABJYmLneegwLNGvLExzxpnc+vr0MCpP/r35tdBHFCXJaUSWoFhMl4hYionFQUUPkEsz1tTFBVhp8P0+im8ICFOxsjygBNO+DJvfOPn6fchiWBgvUZqavBpd1r0elNH/8Hdv/neYryOkdafaPjba4FbtvC177qj5B5ltGEYPr4oijP0pSLVUMUhTuB/zj6I7babJAzXQ15RpNAKF+CH8wk6y6Buuay3Frwc299V87fKNs4T//Gj9nyoFXvPLsOs8bqgW40H8qTy58NwefhvArN8v0WZFgSRCk0lVZ3hh559puq/RRUQtxcxtaHgS1/8Fv/6r58wkMoolLULzP0gsjpyGIZHF0VxjzLeVqu1bT4YPGR0NDx4cqo4UBxu1acV/ejMMsAtcCQUpRF2kHnVr3yfs6uSc4HfACvvui296X/SPclo9wzC9oVVVVFXKUmozhw45XsPZd99PSbG+kxvuIWobhMECUZjTBKqWp43BK9FEs3HC+f/IV2cAG8CgjEoE2eYZsjDWq2STRfulqVKPPrZdQ/4ZkzqDyrt71BJqSWks0ar59rz/IC6Gh4IqvPoOdq0rnRkjYJRQpaWVu/1/Q5BOMEnPvE5/u3fTrC3NMOtogY4a5Jfj9dTWdj8p5Ltu2BXtrZL/Oioqkpf7ZHZkeZ5rukiiqFUat+ENXmTt/cKCJKOi0js+hvDTkNEiKm9/FQi3kDGBXfBBWzSH3FPMdqtk1bnhnSgPVoRevI68K53rOD5z9+Zse5NlOltRk1stedZUjgo+sRJaP+mk9+jRRCIwjhGXXeovXHCYB5eOKEMErwOeApjRYKQsXj2d+C3GpqiM0r5R8+rzaDNVo325H6jh/v32RrvHGRYW9OM1nXzOiPupyntTpc0LYmTEfqDms7IPIrS54QTv8ZRR30KRdcD5bxqVmg+LohDyqx4JRXH34U7cK/546Nf3rB+cq8hWq+Dc3QMHvu4gPvuuz1LthpldCQxUK7TnsflV6zhp/9zMWf9LGW67yppOoy6HXjNq1/KO97yCfv6asZQGhInfC/r8ZJGlOAuvLRN56PuCUa7DM+/XndbvjCkotOC5z0fjj76ybTCHnWxljJbb/mtF3XI85K0rMxo/aKgNoa/C9NkY0VV4/ktgrDNYBARBGOE4QKiaD5+sAAYdYZct6FqNTVbHRgiOLqDwzkSf9ZIvWCGdFHXzgHKEw+NWN9/uJhe832cgy4Iu2P01q01vnOUdJieHJC0u/hBi7xKeN/xn+Btb/2aa1LQH5WXvJhqGEfjvQjyE/4vt13gBx/3qvKliitaDUTwvOdHHHjgfux1n0UkrRQ/0GEaWB+y6J9TU9O02y18r02dd7ho5c2cfNL/8Pkv1Xb4fPGk1/Dkpz2dX/ziN1xyyeV8+tNf4je/WU8Q6VLbx2Zp/7X/l9e0qb733Wq0cczuWc7FQdzBy3P8Kmc0hic/FU787DNNVKLq54SBRxA6om9ZlxTGbIrsnij39eocvJw6qJBBlXVB7XsEfmKoLnTw6zE8fwLfG8dnFJ+ueV8XTseumVZWr7zYPspXNmt5qdEf5WFnCBiN0VI6coY9wSHY3tySkjnvisFgQGf+fOp0YAdOnHTIBilxKyGXgXttVt+U8rGPfJHj3vtdM1y9W6nyUtxmkPXtcKjr8hHAf/+dN+N2ccwqnUNqS5Rnfec79uBpT9mTpcsqgmA1WXYT7a5y2Ixeb0CUjBAEHcoiI45SyiInqkKiYDFVtpQ0ncf3zjyHr3z9Yt77/leyYsf7AovIpyKOe/+neet/fkXQBH7YoiwG222he/51d/RuM9og4gVlyQnI9nIIKkg8ePYh8JkTDmdq7XmMd4V0NM2tMqYypyC3VjnliHlaEEUVVZU7wEjkfyWb2vAN0dhAntp3paFKnOLA8ldPpIda3ngentcl8Ebx/HnAPPAaT0xMUSjnlRUJcdFh4OiOw/BZZOXbG+6QbWX9vpFy7tw2uP49brUsVszSnDCJyeuUKJHXV8gZcctNfV73umP42td+azlk1mS1liXKkj3/K5TVYX/dbf5zzx55JJQ/iYO+KNQ89enwwfc/nUXz+wTVFEU2adSQwKup6tQimKQ7j7qMmNwAnU6HstpAMhbQX72KKPAIW/PsWqqgA9Eok32f8fl70V+zlHayA4RdPnPCN/iXf/+E9T83KiKHZln2//4+17Tpv8vdYrTtTvK1fj890CEcyjIh8eHf/mU7/uOVe7Ng3i2QT1PlPXyBwZkaAuQNdUNUelGvnMJaQczyroWFkobyivxr/q228NWALTNkhbruOfpbyLG8aF4oe+vg1V18fwzfX0jgD4GsEfAFZMnbunqw3re0sNU9Ar2f/a9DjB0aPYtWW3tgLC9eUxUFRVEQ+RGeYPG6oiwzY1qpXBSFHbxghDKLuXDlNbz6NW/npz+9zhZI4aaJahi+pcTRfzIUp9/5Ldp5EV726U5c2Bt/4KN785zD9yLLzqMVriUoa8IyxNc6BxF1NsCLdIj5+MEo/vwdYYMS8YRieg2et56gk0G5lrIcUHo+lecOxbS/kJFFj4ZsMRTCG+bz3e/9lgOf/QZbKiHPrYR3DwZsoXregRt6Fxtt9PzA909Uc3pVFbbZ29rPHrz/A1vz3CPuD9UNDKZW04piosgnL/uIUihlCdVMLeFLBbkmECr5ckjwTF7b1GyG6K+16IlEMQxbhQzrTyVE0+nQOK6wSjYKgRNDefHG8BgnihcD4w6RFshFm0pGLM8ttpSvBNS9vzNshzarBmv/DTzygQPN9NthB1LWH7j2wSC0Xl9VSsIgpt8f0O6OQtSGPOCHP/wlz3/hf/L7m1wHkmsH9PFbMVWenkpZHw6uoeKOPlqt+C1plr0tCkB/fnLW/uy9zwjT/UvpttaS926jG3WhCmw9iulpQt0orZSYIlVMPgiJFu0D9U6QR1DdxtT0ZRTeVXRafQJ1PilSyQX8TRAG2xAkKyBYSpbNI+5uy+nf/QXPOPANrj/ZIfsfpeLld/Q6Ntfn/XVGG0X7BOQvCUMe60WsGkzzWUpO3ojTMLuSbWAn4AFhGD+lKvyDTGjNy00VUXtaNji/Az/6wcHssNMtVOUqYr/GN7En3wAPQ1H9grIeUFUZiR8TKpbLZBy+q8SE+kn/r1B5tsNnJoRtQCPzh0bkl3Hq0s0fu/BXr/UqMzwZXE1CXXWoqlF8bx5huJgoXAjeOHhdkOfXZ1ovn8WtjmfceORhg2BVl8ZDzosUv7ZjwR5hnFBJWM4TsFPQ6nRI+ylJFBrjqqikzCEv18XzRvn2d37Ksw99uyHN/cFsm6G9Ycnr/4AfHXNHNvFEt/WZdDB4odL33XaB73z7MObPXwP1bdT1BkK/RxR6VKl6nITOg68P1Q+qRFeijfqEUZd0MEES3x9aSyH2wZ+kqK6h37ueqOpRZ1MGLEadUTas9xhbtDt4O1Ll8/H9RVTVOJ/67Cn8y7991FYwV7UMPlqxxXD/0r28w0breeHXPD84sCqb/jgzvALfvKbup5bdgUNKUj1RA5vanoVUdKmshtm3kFfYzz+/IOCYNz6Ljn8DYdiHahqyvivwCejIK+owpg5r0nrSwKagVlAbEoYdyt40XliasbluHYXNQ0qjA4g25knJaPQdnJHK2Gr1zDbecVj0ccbrrkRewA/aar2nLBPqUiHfKEl7AuSFi4VQjjSfrbUJqCw0dIUfMahKheiKQZtab6C8umkTdAdLg37rQGm+v9a0kkf1LKu0qKKsYj71qZN47es/T57OqmkoZFa5KAg4LMv4yp+74WMJZxQpj1fUcr8HwimnPJfQu5zAv202R9eLy8IODuXfwvjsUJrphtJB44C/khZlvRTCZXjtrYmiBdTywukGyK7HL28g8m4iz9dbc0U/HWNkwYOpiyVQj1PV8wi6W/O617yHD37wFOtTFv7wh8z4mIpMB9GWx59YgTtktJ7Pua12a99+T6BQTCwvUaYU5bSlV/ZojNYzoEd5mjs2pYvmlIjHKOoUz5+2tO+UM/6DB94/YdQ7nzC/nrS3gST2CaLKySh6Lao6pKhD0rokbFWE2m2q0fZ7tIIIX2jxjNqpM1J/mFM2VmdGYBxjZ6izRivP4cAo5zXtIhpj1Xd3h4G9RoZlRIqAqlS9IsK3mq9C5mX4/nz8sAOJQ6R1eCn8LisZrgu7XS4tAMyFz555aFdk0vcbkjr0fRU1+J5kcPRa9/mDLCWIWsTtZay9dQMnffHbvPrVn7b13aifyePWouYA4Gdz7nc79PhdULNEYN9DHwynnP5C+r1zGRkZQD5FVWqd1EYoAkVs/O7+1JST5WlQcYMGdG/NaFP794wWtb8AguX44fZE3o54Ag2L1dTFdfQ2XMzIgoJsejVhPMEgX05nbE+KdAFhezm9QUBnZDte+uI3cMIJZ9khq3te470Q8hO3WO0fr8D/brQe34hj/1lZqq3nm0JDXeWGbMpgjQzgQjSn9jD8HyMXSCXRo8hUgdVmrkhaNWk5zeOetJTXvuaZ7L17xfzRNWTpDXjcRuwNyAcbiIIYP+5C6ZPlFWHUJk1zWrGIEmLppJRlSm2eqKmRzm0GsO9R488QixsDdPWcZiUU3iov1vd2hurYPE1Jx6Jooc4Cm0L72R6GRlfk5i1HLHz1/RH8YNyBWIGArFFDuEGHj2NOWXA8pzVQgFjlywg8/Cq2vNpZoNKI0rynSlgGXiVd0r5okpHpXCl0zkufj3z8RN72lpMZ9KEVJwzywspIlVdfQMRzqMJxyuJ/2rHE22Gf+8AZp/0jRXo5o52MsreWwE4MD9rKV3P6eWblqKIeMrscU9oOmyGQ3lyHqJulatj1GIG/LWF0f/O89vR8PVdd+j8s26aiNXotRbGOqh7HC3cg6jycdHoepRcTBuNE0SKe9MTD+PGPrrN9lVkjSHWfLRTIv9ZoQ55IyentJCYbZOYjlAvtuw9ss+0Ya27bYJGsCPDrboWbb4GpSbflZdRiwTQOzup/0ie2EoaMudXoEAdw4IHwzP13Ya89l7Ldsi5RNMXU+t/jVX26nQB12kTxOMWgED+XNJ3GD/pELcft1WHx5wj/ZrTD3dZsulnfJO/c0BRlsHbQzG5Ue5kOBUOAnLc0aQoLaV0pqvIDclEki4i6buN5YwTBBKFKScGo/UENDbXzwEZZtJBcibjyaZWPXGI+rPHKUBURCFwbEjiCqEs+yAijBC9pUfb7RsGMWqPctqbiQ8d/mWPfe7J9PV1B3gjRETj1OaUrj3pkm29+42VQ/ZZ2cAux1zNRO92kajBtkUUoDa2qIM1ykk6bQjFr0w1lVS87U4QqK8TXwe0aKepS67QY398Tkp1B3reI+e1vzuazn/0M7//QP5DlV1L5KV6g8s9DgO3BHycrY0J/lHUbPB6037O46UYYSL/aSdiqDvdXAW2bunf+i5420H0oQtMWVjecjO7gQ+G4459PkqwjiWsGfY3daKM8LStUwhC5oSJPcwZpyq23bODKK65j3bqcc8+5mXN/Dddc7UAH2YI2l+0EoxTCwQd3+Zd/fSY771zT6dzM9PRltIMSv+qQ9QbEnTYGTWosT5VTeYI6hmCQbpfLv8wnziE9DD3kRjdUebfeZ9iHu5Gnbmy9oTMa4mz1liGd0f1dWvmoIc7bsSafJENQWJmYSJwXTBCLxBEIyBINcwQqgVk+pVdQqVDtqTGhNu9qRAodRnboNSWsQiwvFyEMwTbRIus6pp9WdNpjrLl1io9/7Au88+jvzJaIiJwi5WCKFdvVfPeUV7Dt8tXE8eUUvRsJKqUuHlEiHnZmtW7xpdNBbo0MM3I81r44NxCX4erW6UBQyBVDkTjOt1DieBdgG1ZfX7P7ni/kXe+e4GUvfzT99GIjaVTFUsYn9gF/J8pCB5uPH45zxZUb2GfvF1kZyMDKJLmk10v32NQN8a+5vj9vtH4o0vrRLU8epG9smUc/Cr7y1UNIWtdSDFYTCIjyEpeneaUZrHmn0OVkAlOiuGMyLXWdEIfz6E8lVNUYV11+C9deN81Pf3E5X//GDdxyi3pMnTEr5N7vgfDq1+zBox6xA61OCtPrqQsBTxl11UeorACeMI4N7dUGMnXFjZQp5hrurEHPLJB5OfXJNe5/ps46d1lcPGiQlpVc5P1kpa6fz9WAlXcOe4lk3K7kYzmw5csj+MbGktOYIBCJwx8zooGF0MaFLqy0pRTExcXyyK7mKzQ97U0RR0GDIdSGkCkUlgfW0RPIS7a6VIOIdesq3vK2j3DCZ8+cITCY5Osf+Nwq8bzxjYs56shH0m7dTBSV9NbdSLvtGcEinZokCBSydqgkgDXU0GoiEZeKDyMU1YtzK8fZepRaoBaEW0F7F4j2hHgfHrjPI7niKvju957APvtM0o7XEuRt+tMTtMYegB8uNTJMECm1WMypp/ySww9/hxE4rKkC3v2HAv2WGm6zcf+c0caeN5p66nKhR+hVjI7DygsOY6y7itC/1Yrvsi7DL7R/Va9sPIE8UmEMJBdOqh4p1s/U5IAo7hKFIxZOVmVoG0R53/Wre5x6+q/44km3sfLCpohSwYrl8OY3PYAnPnF7Rhb2mFxzGV4wYKQ7Ti22UtPnKmqDsyOBSX9G2G2mfuo2nivBDHPcxls36O2wEcA8rCiRIk8YQO2oku5RmRFZCGsp85DEIRM3l9kg1L4BPQrl1fsbhB2SuAOheNDLHaDlq72wZUCXADhh5Fo7hacW8paZ8XzLTKWvilBdSkJ3qV2uH40xtXbSZhTFo+PkacZ1N63j9W88nm9862J3MGQOJx9pu06dk09+JPs9qMX4+AYGg9vw/YxA3rSEqDVO1UvxdYESvBPw1EQViiSUCjjVykIyXgR+3wC0Kh+nrMcJ2hP4yU4U3r588MOn8NrXfc0O/ltuOQTS8xnNBXcvpk52wRvb0Wq9Wa50Z4ROdxnvO+5EXv+GL1t0V+TiYcePhqmf/DUeaVN97p802iCKPlLm8VEBmThDKCL9+c+fyU47TlMX1xDKO6WeK7TbJm7ohma0ztN4fmihlrzGYNBzKg8N80cbWlVA5blhLaRZAEqH1uh29Prz+N01A075ztm8+12rzBhaESxbDu965/Y86Wn7kVdrmJxaQyepCKqB+nZmC5cz5Rzlp7Pk/7k3UOUYQ5pdzNzkw01ua95trtyqykKq/7prsxBVnrfhFRvBomFFWXufcZEb5r9yXgOz9DrXbK8Skh0uAri8cbJsPkm8hKi1qGklbFMXAtta4MuAHRjg6ssy0JRWt2s1XrUn6tCMoxZVWhNZqaxm0FtP3EnsgPCDRVx19W28650f4uSv/IJi4AxX54k879MPgHe8/cksWxZR5KtphQPy6XUk7RGKft8h9sqS/dIOQ5WfrB7d5OVS9VAVQTVatUwio81j/CDGa22D33oQq66bYIedX2xtfc89Aj54zJPp+pMwOU0/WEQyuiN+vJw8HyHqLGByymN0ZBlPeepzOeO0a630pQOtpqeTbbMfV/qnjHYM31sfEuOrrzWCz33+ATz5iQtpJzeR9yWmBqWID60udenKJNpUMx7Otv3tG8+dOPjMv1veKchEdT+NpBw12pv9LIRam7oe4ZxfXM/HP3wRP/q+w7T22ReO/cDT2O0+HYrqalrBGih7lJlQVZHYXZgqWaci683gRnOJFg7wdjXlWvmk/dDQDw2YGvbGNi12M9czpEjOvbpZVNW9UZPzzjId3cE2PCKGALEdDM4jlxYKK80YMyMTkYNARjxBlaqElojhYGGw6/WV0QVm1GXhDh8BQiKu4Kcu9xZrq5TRdhikagec4PyVV3D4c17BlVfJ4B1I2BJNtFKDxkN55v57kKcXWyRF1iNph9R5H0/q8HVokxoU8sedFlnfefW6dA2JeSgisY9ftQhK7Z2AqlqIP28/imJXnv+yT/HFL//KOrVO//YTefDe03TCm/HCFr3pDp3xB0K8PYNSqHib0e5WTG9IWDDxWHt/wV1RO/pB3sufsKl60Dt6XX9ktH7AR6uSI7WFFc4ccQQc/76DaUXXMpi+nm4rtJxVCWvW7xMlOgHvoD7TH32rYXiq3Chxxu9XhjCWfmYhmF8vpy624dbfj3PyyWdy9DFXGuC7/0Hwhjfvx1bzS5KopFJ+ZzIwAsB6dEc71lVjJP85XGEjVBgPWcYgIxh2dA+vYe61DPti59Agb2fAM2Hy7UCsuWj2XJH0IXLtDjAXWrpIW8CVeLmiT86z/Fc/B92lULbMAIULeGJJeUKhVXaqiYO2ETdK+nYtClcVpooMooNJErCiRdZVRVoEBNECPvjhz/G6137OSkAKkw1kDOApT4HPnfjP+N41+N7voVpLHFf0ez1Cv0sYtvDaHdK1a0g6QilzPBmn55OrZi4yTRkSVgFeGUI1RuEvJxzbj6t/v5wddjvCurL05+brDiPmUsjXEIZjEO+KN7YXWX+MuL0169ZMMTG2HReefzP7PehwBLo7cXgOo/zzBJI7uvHvzc+7vdEqmcoFzmphxWn/zW/3Z/mytdTpWtqRwmChSjmDfkprbJRqKDV4p1bBt5vuvoRuukKwhnBgxqXQKzStpUE/pNWeT563OfOHv+D9x93AJRfCy18CL37x/ixeVjHVu5pWa2BedjA9TRyGzXiQJrwdso2aQ8Y8lIW28qzD0oY8kIx/LvF/7u+HRFmFu67uOguADeu4QybWcFGc23WRSKOvPJRotahb3l0ouAuvRbbXtdeijTFGlCwmjLYGbwHkbapKPaziXofUxcCRQFS6EZKkDhtbO0UxhVE+hQJnA62vQluF9xHXXLOGxz36xay9xYH3iqxF1FAT0le/+jQe/qgO6eBikmBgpbVqWrXxgEF/mrbue1baewVUJhHMAAAgAElEQVT6rr7C9MytQxUTqPPJlqlFHS+kCnehih/Mt757EYcfchyqGb/shfD2txxM1P09vfXXU4eq325Hp/Ng0v4ESWeUQb+i1V7Cu485gTe/9WTCOCAvdUCzWYfJGxltGPOGyA/fVQ4KRv5QkXjr2/fiyKN2ZXrD+YzELYK6oN9fS3u0S94riST3Ug091V9vtapLejpCLapUqiL+TzMKuo5sE0StkEGmuqySOhHV20Sh+jYnuOHaad537Pc57TR4+zvhOc99NL6/gaqeprLyhbp6lGO7vlcBStYfO2waENBmLCW9t8L0Oeoutzdcq982oNVMg4C+uKAsgVobe2pv6F5nhM+dsc8Kog/BNnc4KMc1TjZCkWVgzmeqZFSWbepqPnG0mLi1BOSZxMzSVzJjdWCe0guVmfR9Kk+RSo7v1QwGGd1k3D7DF7KjzyoC8rzLv//7uznxhFl8RzBEqw3/8vIR3vb2w+hPXkrAejtSyqxP1ElsFqgqA34o0khm37VswD+xoSyWqTOrn29IPdrjexB3Hgr1zrznXZ/jHW87ldiDH591ACtW3MLovPWkeY/+oMNE98F4yU5WOipS4SAJQWs7HrjfQZzzm5stF+92k69OTqbP/ut33Kbxio2MVn7DznwPdtoVfvqz51KVv2XB/JJiKsUr1QKXOZpbLQWJjMBwm42IdHd4ZQxcMRfkUNlZv+SYVQpj82KAF6qfU6MrfUJxcAuf0B8hzQLaY4u59ab1nPDJX3DiifD+41s85nEPoj1SkGdrzRgFlDl+1KxcjJmbuMlSuZhLdRwapwxYh4p5L+fBDGSakV3NZ8eHzHA5hVHdfi02Th1c948zdlct0qHhPLmIFvYtff2LI40oBFazuIxTHG51zXh+x6Re/GRrKJdAJTpl7CITZRoNkKZDL1YMXNXkg5R2a5y859n6tdpt1K8Qjyzlm1//Ac973putPGQSPCJHxbDf/eFb33opVJfTbU9DvsGE2xUxhB2PUvmuRRsqbYn9pfXRUZPieX2LmiqvQ14vJstWMD5xP6i358BnvoQzT1/HvveDM848nNq7hKJcRyJMIu+SdPaEbBdItiavpqiDcVZdDXvu+RxX2jNOeb1vDufd4c22CT1xxmjjOH4ORf4lzXttt+C4Dy3nOUfsRp3dQJ2vI/Yia+iu8qwhsov9o42lnOxvMdrhax2B3+1nR1Iwkw7FNkqtMUHJV5U3JY+4bRPuSgOUxmjFS+lNVnz7m6fz63PgpS9dyi67bUtZ9q0cJcDJMYycYJvltMZVHpL0h7Y0S2V0AFvDuLKc02lDWRO83s+ULDbeDWa0c0XTN/LADrUeAnLyzu7gKtw6Go1yyOCS9/TxwtAUDrNChuDhh2odjKmrkCIfoR2pkWohhOMQiHiSGOGkKBVRqGok40qtxls3OW1tdMiSQLEwPr085Pc39dl19wNnhm2LAj7acc09v/zlAey0fUFV3ECY1AZG1n6POFFerRNCrXkii6jP0pWHqmDawXyFVEcWU5Zb0R7dmyrdDj/cjYmRJ9tnnfiFvXnWM1cwNXkpY53aBBHybCvi8cdDsQgp/JWemu0XcdJ//ZCXvPi9hGFMTnZzXrDVJmSLd/hSZrZcFAWrycvFMoH58+CyVc+k4gLaQURv7VpG540g7dJ+L6U9OmE9lVmeETbkgjv8ibd74gxg8yeGZempkmppj45aE7Y2biJ1f88jHaQknTHSTHVUsYfUAqceU1WiRvnZWb/iqith/2fsbqWGONGkABmFM1qHsMpj/3kQzVBmlW2GFAMj9ructOmWbXLf4XEz9wAa+tPmgpt+29kJYM07WD4qD3u779EYuxoF1G8bWHlNXtJ14NjZZnI6LXyjTc434/D85ca6qirVUcXLlvBdQTQyTrZuHb6nWUTiW8tjlVQiyMQJvbRizdqKgw4+it/8aoOJEthaSk2rBR/92G4c8KydwbuBurqVSH0W+cBJwFYhnn2eUH+XAtS+0iYnPyvRvd6kOrNW0J7/IGA3TvnO5Rz+vLeY0V9zzYvpRucT1De6+n9rGyh2NnCqqheQVR2CeMRQ9Qfe70DOu+BmA0D7af6PUJ50Z/fevfV1Q6PdKfC5QjJMyjU++KEHccQLRymKi/HzgLjVJp/cQKT6j0jpk0KNFQ65TX1nPa1j1rivIGFyea7ZMZVN6SSMKAdqGFeEGFGmOUGsljHPap8SoJG8U16KB61WNkmWCkgbI4hHueDcc+mOJEzM6zIyqsZ6t5EVFsvjBURWSrGwyxoHhvrJw+Z5ScwIhRbdcU7dt9FLViPBDG3yjyKOpn92DrJsWsszj8rSDaer3NR4m+PAWvlkEGqUV8O+E6pyIb69hZMprUPfvGpVjlDV8wm8rW1za0gYoeiSEij2qYsQT431qhWXpeWjok9Wfm69u1EsFcsuVTnKUUe+mf/6/K8MTFLgoFWRRtQ73rWY5z/vgXhcS+BNUVWupOYihgivcuCciFFlc5grUw8EhlXSg5rAC3bCb98HWvvy1Kceyo/OvJn3HrMH//zCrQmry/BzCcO3qYJlRKN7gr8rtbeQ0qrLY5z7m+v4h8e9lCn1FDutor9Ixb23GuZf+t52wWEcHuvl1avFhhkbEZHi2Wyz7e+pq1VEoucZwjkr+u3CQoeEula4O/uQ0cpolMaJRzyUH53l3M4wlhpvZMCVTvWq6zi/wbSViDZqAtD7NYYi5QjnnVwnSyDD1qavM+NIq0c1jDoE0RiI3C9iv1RT0pSs6hOFA6pgitqbcmCZ5br6YDfPJ6hcgcU9XPfP3MdQ/sbq2aalLO/TDLMOxJRSuDwXyDIf6NB0k5ZzqYK1u91upImh7YFLV1TnrkUhlIHoj13kKGG0AsJtoNpKxVQqL8dLVKapyasMydfVdUAcLKQ3rQOxpNVezFve/CHeffQp9lUMvKprOl149au6/Me/P4Eq/x2dJKUopu2Y8a0106mACP0uVU4TkCiTL3LzoKVEBaKlRN3d6bMjN9/aZdftX2T987etOYDB5K8Y6XSMDtlLPZLuDgTJfSFaQV0oqpLw+zhvetP7Oe7408kyU9N4MZSfubM78N74OtttXuDXQSkvW/GsA+GLX3wevfUX0un0qPNJtyUrIZM6SQsqY8c41DiQJMmdrtNKeaIR6rb3c97Dtv/MYTCXatjkT6pXClE1luB0E4o1XnvIiGpAHV/DngtpRTmjsm4j7X+02T0qAUyeK6EE6oWV4So3VN1I+7DsW79pmk2auFkQOB0qGaepEGrhmjzZWuokLjeTl1bGYIpEgwwEIDVAlqGvlWlNCR2da4wzMNVGbUtDneW5W0xGofBW9VnFpG1qA85ErWzC0loDyhbgecvwg20hWmJc50yaz3KjopjKKjPxJMdJ2h3w1zM5OcXI+I4c/4Ev86rXfNaVhJSClCUCj9/9rqW85J/vy/TUxbST0KiPZrTDkpZfkTfN+34ps63xbeC2RyHVD4W/7d0oqz148XM/wje/dg6nfm93HvnYBfRuWEVHybRXMpW1CJPdKIptabd2x/PHKW3vTdBpP8WUh+xQHqr43Rst8E58Z9Xg945pXRBmaj3r86WTd+fxj18A/Q20Y+WAUw58adDB2pdmkxBEV3v824y2IdZbXjeXfaSw24WdMyirnS6zofhGubA9tykdDfthhyUIBNoorHS6xr4NjnZZqtDW0o+NrD5LwHBqEcoXVW4JR7Y2bShTp5BqR5FR5lPk5ZTJs8RJn7qaoqzk7dWl44zGic1JLVKbXXXiYXeOPHPgjNgLTOHQ6IGiglonzVAlYrZh3iGyrhNo+N0b3J1qWKZSq5z1/Q4ZWWJMqTqjCEadRlsTJTtCsAsV4+RqsLcGC4+obuEzQrphPUlHWqoemQTv4kV85gunc9SRH7DzVL3RXlobS+629YeSZr8mUvRSiQnVGK3Xpwpych1QVYRXdszberWilIKyqklFIOnuTLv1EH5wep9nPf1NfP5zO/PkJ25F7N9qkjcalZgWUnecT80KQv/BDHpdvEQNFOOceOKPOeplH7d1DWJeVaQcdyf2/73yJV7Uab0w72WfiQkYTXLOWfkkFixaxWjYoUoHTRdMEx7rQPf7DsxpSiYuDL2zjCjXmTMkHcyuoOq3w4Z6994OlR32vM5uXoWNlks1ihBzVSpMcdFCWTfdzoWcecMbdq9Ra2DliyRQoXDD12AtXW6lPFHM+vm0oiWuvGL1US2CnpFCkEGhVpQeVTUwT1yTUtGntP/vE2iqXvPZ8sAzoXQjLtfE6g11UpbdhNpNn6/z2sKtmyb94SIN+4DtMJvD2JoxXEHfkpV1owsy5bxsRRTvRdBeAd4Iae4wgCpTI2HLpoNVk7fiT4ywfs06xhctJ2OEdx97Im9760mQ+0SlT+QXfPu0PXjIg0OCsiCa8bTK//sW+eSWgkQEApG0/qUONanXaTpERO4vJu7cjyR+MuPtp/HSl8Hb3/ZMKK8mDNZT6kuZQJFHli9mfPSxeK2dDXOY7oUkreXstNMTuPY6x9zLFenPqhvcK43xjn5pb9FWC064dfWaF4xIgZAeN956EJ3uheRTKUkQWyeNPZqCv4r2zvW6sLhp7Lmjn/dHzzMcdqb22Sgo3L5FTioOxhFuPLIdFI61NCsO7n5n6hlNH63ybk9Aj5EsZLyi3uk1Lg+3WT6Wn4s3K5KAcki9j1oLRauMyTMBQZFpXAWBGvTnQSRxNyk0Kv/qNKUObbJpqKao6inKeh0V8sDrqb2e1S6VE0uRwthXZvjazCo9DbWY1RnkCBaO0VThq9HADh7xf4dMrSaFaITs5upM2Xs2dV99hsA6bfSy8shKgVHziVrbEfi7Qi2ZmJbrifZCAoXHon4KnR4bY3L9erx2TBQv55CDX893v3E2sYCpPwQcb3pnm5cf+TDCYg0RfSfj00jnaE2dCIcOzWYekmRwVWYz+ZqQQRFQBzvQGXkq73zrcZxy6uX85KfPJQxuZHpSio4pgVQ9CMmqeeTZ9rRH9iAvl5F0ljM9nfHDs87jwAPf63jUHnf1CJU7vef/1hd6K3bY/qYbrrluK78sWLIALl11EP3+T5g3toDBukmSSNxWLYqrXzqYZXbanIMe7lyd1t5KhXmBXZ5ocE4exgx57jS7odEq9B169mYTO7/kGE1mq3VDB5xBYWW0TipHebKEx4YjPOThfd9m3dmUAsmruBLPEFTxSZLEhbCF9I4FgnUIJI/iTeCJVhguB3/EMRIsElCOK6+iiEQhYZ+q3ECeraMoJ6nrabwgI1DIK7mZTDN4XQuf05HSoTEUT2v6fIfhf9Nj65Bk9y2H6pKOmDHMKPS7hnMt5pSuXmCSeVz1LI/RjnfB7+5MWY4T6CCqIvrr1tMe6VotXh7OizzKSH3Lo2y4bSHbL3u8nSlqGHnUE9Ta9xy87DJCb13zXRo1Szs8m4O+Lolk5QLiSsdIEzNLx5JE4ZKxx3LBb6/jaU89kQtWvohBfhEL5/cIyvV49YAiLUwAvWQhQbwbBA8i64/gBTVRZylbLfkHU0yxh1MfmAVG/lbruIe+3lu+bEV90w3XiNzH9ivgl+c+nShaSUszcyY3bMR4spY201RyU+M27oa5k1co72HN345pI6NxnN5h6aV537kUwzmlorl53kxkudFXmQ3dZ8tJs8wl1TwFHqks4S62aa0Tba+ubdCUyiNRoMNA/FyVihQiRqa0kFZqaB8n8LrG0pJKhZOWablyiyhGhjirJ25g0QzlJEU+SVWuJfI34DFlCpbKa63ryEC5YVjt+nWbcMfxipuQXweclYrMs6l848pmw8PQoc76de2aKfzItJRFvI+CEbzO9hT17oStFZRpZKMqi8E6V8Zpi1c+wIsVnvokwXKOesl/8rkTf2qNBgLPr772hXTDcwn9W/C1L5roy/GrSyOhWMlKNFIdAhK7K1xDg3CDspygjncjnLgPC9qv5YwfPou99s3o9y6nq57hqrIynzqKrD9U5aLqiYQKk/0eRdXik5/5b17+ivfZJbda/rsHvWqTb5YXKC/NQ0P4dt4Rfn3+gZTlbyh7KaNdcYt75skcmd21kM3wbGcM6c572pnwdobb2+w5qw7O1nFdPDsMn4d7WJvZHax2oDQPZ/xNlNx4bGNB6Y+YVQ2l3vXCujB/KO9ijftNKmD1U7Gwqlk9ZaukSNupKslKn8ofo6RN4I2YMoe0kT1vPlTjTlZGIbTpQjUDelQMN5KHDHMK0huhUl6cUZbKjWclXuWJHUDl8lnXfO+u01J8C4D0XhlloFwytT9m8E0KYHN+pVWs51UyndiGYuu90mKM1sKHkU4vJlFZBZE1pohij0oCAxZ1KMSO8f1xLlq5moc/6GV2Dqln/6yfHMCeO19D5N/QGG1kn+tKgs5oA1+dRgp1fWLzuI0jVKth0WY6ncfowvtz/Lu/SWvU559etDOBdx1hUduoGHu+6FnRgOnBUrqjz4Vsa7JiHfHYEi67smK3PZ/hcAqd9cpwNvGHtaGrzK5q6dJF8NtLnorvn8doe4Kst4HQvIPYM8rdIudh5RmHTeB/1yWaa/wbE/CH8c/GoNefPiwcKjqL6QxLKkNFwT8O5//cZ/3pu+90lt1BYbOBmlqqGb7UBf1xG3htPbFowNd8y31vW5Oy8uIrOO/8i7j++huM7TU62qHdSQxlVgibJC1GRsaMBeWaHlJasUecyDuVzBsfpapKJsbbLFo8wcSoGE4phULUZJra20BRbKAserRbAWV/mm4rMoUP6UiHifSiSmNFKcetGCVp7YIfPhDqRU6BsWF+GS87jEkHmQkeJO2l7Hf/Z3HBBRuM4PHBD+7LPx0xQZWtpC36pMJfpR8qiQWqgUuGx9FFrd/DID5FEroDmi2cUPttomBHLrt4gncd/Sk+/dnHU3E1SRKRpymheMYa/eL1SPOldLoHQL3CeAJ53cGPdiTp3t+60iRV5Ps2I+qzm7LdeitWrKhvvOYGQ00Tv+DmDYeSV78iUWhXK+8Sh1RWO2redojiDkPNO99Lu2ksqxsNYqiWU2dU+cjQ7A4VI5TKH7tbmwFXxRh+NB9a8yh6FbesmeKiS65h1TU38utf/5qzz17J766CdI42Q5OKNoN8XI15CCHod5bO+7DXfWHvfWCf+y1l2bJx9t5jRxbOa5GE0wx6vycOJokjx7IydcvOGGUmNpT6kLchCPYzaVNJ3Ury1aR4BOBZ10HMIMuIkoWceso5HHjQf9r7HHZIi8986nGQnUdsw3WbNkMvMKaaa9BwYKFCXQdUOaMtTPhOHr+mzLemnTyWB+33Vn55zpMpqqvI68wYbnqJyfUqvy2WEI88hapeYRFHXo2QFktYts0j6U9blUjKIDcUhWn4bLIPb8HCeT++7da1j2qREHkpF131BLZaeiPlVG51OWrlWyopiFvaSFQ0EtwWpv0N5Z5NYVUVOgvh9Zswe1iPHXbaGHnCiy3/krxqGKnssghqKe7HhMlivEADsB3hvp9NsXbtWm66eTVrb5vkkktXcdWVqzj3nHM4//yMft8mCdiqSx7LjFrStCYK76Jn2+Ta7J56jcc4/PAHsPc+Cnmvxytze16RFTZ9UGSFsh4h8HckTnYBb3sT3hPF0UqtJiXkU+oQF3G/7rJk6VPo96DbhutveDqJfyGhoeByobUJLKdFz+SFDHiqPUKT6xmWrUSyaBow7ARaSuDty7HHfohDD9ud7XZqk+XrXFulwmQjgRSUxVLCkSdQVdsarpJXoyTdPQjDPV2xpwmRy9npK5vCFvuja/CSdnhM1i9eG5PQDlLO+vkj2HHndQRiv8jZ1vK0Mlo3p2YYpjpP25RYNsmluWMXJWKGEzGfS0V0IJKaw7VGIv3XnkJgUQ3VUigO9ITzwN4EucpGmhkUtKxEI7BJIFhZJSTJfDxNQfAD+v0+69ev5eprfs8F513OhSuv5L/+64f0JNHUbNpWEpIOCqcDpa0tAw/gm9++Pw97+EIG06sYGw1QH15ZFtRxTSHSSD2PKNqewN8bvK0opcLp+QRBo0uVaISl/i3irW/9GMe//zRLN1eufDTbLbuFOlXZSBhEbqizjDaIHFZgnlZJ+EytfdZoTf2CCYpiR9avm+bClafxiEfuQTJS0pPWVSh5XqHOFUUpo30cZbXc1qT0xumnWzF/4UMN0TbVT3du/F2Ttju2E+66ZykdO5iKk0f9MStNfPQTyzn8iN1MXW96zfV0bKzdbKnF8fsb9pIV9f8W7vFdd6H/F59kaLV52Abhtd5ch/Q6SVVv+OtmQv1QFypyGlW1Rm3GNhtXDe5eawHYjFzhB2rI6FAUoj8mDcFfio5CszVhoKFxknPzzWs455eX8qMzz+bjH/nxTMgsr++KSTCxAM488zlsu+IaAq6jpWl4WY4X2+AR0y326sUEwc54yQ7U/hJyGUbVN+TZz2WAoU16+P3NFdttf4gdCF/+8gqe/qSlVBo27avM1MePajIJ7qmV08geTqra6SZrfYSiqIVQW0kklQ5+sJ31+Z70he/xvBfsR2/we2LNMDFut+SNavJyCfHooyiqbaxurnEkKy+e5AH7Pcd2pBrABgNe94f+hvf8X9zve8p7atm280NW+UVCTGpDnT/8kacSB6uJRZRXH6d51Aa1NK+yxWjt6FL2YCoRzcxpa6BoDrXhrB6N9NAUQG3UIcgjbRfhsrlKIU7PyaiSqNOmbSUkL5jnJFZVC/a7RrUUdzkvpYMqznZgOV9FShgkZNMt2vFW4C/ip2f+N8d/+DhO+/4VdlgkcUCRlyxYAJddeTCUFxLXOXEg7rUjn9SFbwoZiO7Y3gnCnSjqCYJI3TtyoE0t2caLLmTf+x3MpZev4eUvhXe+/Yn4+XoiIdjlFJ5fUIiTbRpcrl/5zxlt6KsvOSKrRkiiMb7+5R9z4HMfRW/dlXRGI6qBFtQ18hfVVsSjjyEvlxvRxfOXcPLXfs0/Hv4W25HKabPcyg5zJEjuKab29/sew764uv0HuloSaMHh1tuOYmryZ4x01uMpQbCN6ATRhiGy+Md/e5fP3+9C7o53MlkXc7OiAzrgRi3ztsudRVu8ZrOAmrF2ekGRKyTUrGYdgCqpuYYMhcSmLax6qq+e2CUk0V4QbENZRARyJaGYVTXTPYGEYmppIGWXIFoKdZfemg10Fsw3tPXKVas58IB/Y+XKq5Ggou7ji14EH/nIoUyvWUnkTVkjgEm8aqerjuq1IVpKEO2Bp8+txskGHq1IGtXSJpZnHuPzXziNV7/2k+y+E5zx/YNJwhtoBbdRlwMnc5NEZGUzfcA46m50i4Z36dMkUqclCoOc6b74yl267flcfdEqtlm+lHg8YzDYQKyh3g3Lq6yWEI48lqJcbjOEvXApr37tp/nQh79u833rmlf+4eQ7/u7YC3flZ5rRBon/US8NjwzJ6ETw/TP25377rSPPL0Pbwuqy2nx2iAU2CsNUDtWPai1Zm+tDh5hohsN6qmuSd8T/hq2kUZ1FZeUQAVbyliJH6DW+HXyTDYLkhMcJ+zZoWnluOlhE5N+P9sieVjIqpUghYFD60XmLzsgC89Ln/OpSvnrS9y201KG7dNkID3j4vizffjfr1Ln1pp6lMaGfSQiC73zjwTzioQnSPXDka7XLyONBVgvyGSGOVxC1doFyheW7TrpV3rgiSsZZffM0O+5wmEkTXXrpCxgduZh2fAtenlpdO2i1GeQKrV3TR1BKIlY/NaLnmm9kB16KH2r6noa7dSgmfRIJMofTfxi7m9oANnMOppm1lGjk8RTFNiYN6/tLmVjweKbEHrUBcGi+iJDTTfrhPG3Evl7unytJMAVyxxy7Ly8+chFpfi5tX50aQijVPyqJk4qw3XJDsELX4bH5PuaQPywccTXOWQF017zuxn+6n23zNzCJZ+QUp3IIbROeqzypK4rU0KIslxD5exOP7EYxHVlNU2uu+mYULuVHPz6bo/7jDay6JieddHmjhYhls9eHo4TNk8e04gp/ULDTDnD+ymeT9c4l1n2VgnmsYd9qlkjIK4XekqZYRtx9JOSLGai/tT1CVkpzq6aVTHDIAQdz+ukDTj/92ey6+9VMjN2El7seYE1J0PQ+X2Gyrr9suxDZUy1ZB0DTJ2xMuJrcenZjoqLdUNv7DugUCm4yGgN62QI6o08jr7YzEbvb1oZsu80/NuNa+E1V84DNYS/OoGyj3ZG1RW9qQjmZcp8Lr9ifML4QL+2RBL7xRiVVohDKNl6gCXZSRBhS7DaH5fpL19gQPWZUCZsWOQNd3DKbfM3M6BSHLEuwTo3rXq0uHCHHMh4ZpiYNLGJ05D7k+SLika3J+2r9i7n08ms44jmv5ZIrYGBxNohoJQ3j4UN9AjaGVLahk7gn3rS6eXJaHnzys8s46Fk7EEj8Lkip6p59chjKMAtCXyWWBbTih0C0C0UxbmWapBWSZQMSv8O3vnYaz33eibz29bvyxrfuQt77NXWaG+IroEk1o9yTxIRPUHadHpevaoS6xByAZ/I9Ksca8uwTlgLpXOeXtX8qcPEqimo9pbecoPUUvGAXirrFD394Ifvvf3QzMyo4NMvK/7c57MK50Pih3Sj6cpnnJl596o8ewr73K4lZRyxgYVAaoOBpVEUlErckOFOH7G22j9s16DcKko5+2XRB+SHFcBK8ryZ51boLW0M1KlhDvfSjqphKbCKvTRiMEmhQtbcE31sO8RJIJfUzyne/821uvW09u+26F/MXb0XQbrH6ltWsW7uGW29aw9m/XMlZPzyHKzWZ0LUNu0em6Xhtuh50OpMkHbji8sMJ8gsJorUSbkXiHhoxkuUDYr8iy1tEwS74ye4Q7U4/TUxvq8oroiqm30/YZsWB7PsAOPV7TyfwLjASRTo9IBlZaBMJqlB1GLXwSXj+TxmtY5aZ0SqWE4vKYhWhA+7fTHwgGjA1WERn/Fl4/l740UKeuWHJPLYAACAASURBVP/zOeW7GhviAPPNZRtudKGRZkzVEe0458GPUhfHQfhcTVCvsxqcjfnVnfVqglbEQJPcbIDW5voQTW84VsTlbiYw3rQG2qooSmk4vMNZs0NbKoUReLFrUhdN1GsT+CI6NMOp1f5Xqz7aVikDL3RjKzP1onmBxkCS55oxK489oC6VD86DYB6T6/pc9btruWH1as4993Le9ubPG6hTGfMgN+M78YQH8synSrrnd3iaB6RcVPVlI2AorFfCNE7OcpKJh1HnCxikGXHcwc8iPH8+hx3+Sk4/8yIuv+zJjHWuIrHOJp/BdE7S7ZKpUUK4SCVRAaVZqkaILTXskxb67uRp5IFD1XmthOaUUkTwyPJp4rGADWtHGVt4KP10JxOxGxt5jLXlBUH41awoNhsd5NufTk9sBZ3T67Jns7W+9Z0n8JAHaaD05XRjH1UuitTlGhru7PSQNuecdtiY39D3rJe3UdCwuK40lQ83NFrKFUoz5E1bRH6XOhizWqP+hKrP2gBq1W+deLHJpFaRjQvVP/fTadqtDlMaxxKNU/RL2kZv0ixZUaGkrFGaUJuYWCJq+JEmzrW49top7rfvAaQ9NwRM0tV73wd+dMaBwIUEEmazdr71TlqmiK0eXHo5aTVGq/0A/HhHirRtA7MpNJqkzWlnnsshh/4np596Xx76wC5+dgtlOU2YqExVUdihJjDTDaHWwT872dApXlTqa7ZtpGOs3yildE24TWsn7WtVmtJiGa2xZ9DPduUHZ1zIQQe+uRGqCx8LxVmbi+v4o5CiFXd/XRfTD9AC33dfOPOHzyOJf8dg6ibasRZcouG1taip6O56OzfXx+0bHIZh8ewAL9VBFRLblDw1FFSxhame6VCpqUBkCnlUdQQJ/FGr3XA6vUo/CWlekLRiemkfL1ALXZu67JBoro9QJ9U79BjeCuU3apHJVR4KTeQ8jBewenXK/e5/ALetM0KUHcI//9mj2XfvnKw/Taz8s5q0ebikbWrpLwWT1Mpz86W023vih7tSp10z/CiZYM2GgOXbPIMPH7eU5x12f8rBFbTGPPLpaSv7KAmwKkNTrx1qPQ9bCG1Ql6k36vuryNpzRluNmNFKLidqt+j3dBDsTNh9Il74AJ76pCM544xLLaTfnELjubd5rtUp7ZlqS6rFq/jgR7bmiCN2J+vfSOwPiELX+1QWEg+bs8E2U7u1lsVhbXbYfz1UsFS4XGlMhtDjhpzSTCDwRAzWpPVSvF6pMoq26NQp/bDr+l3ledsTkAppEtli1E1brzStLiQvJOwWEcYRoYSIKwlPuAHXQZBTlQNChbvycur1jca56eYB22x3kCOE+PDSF8NxxzyDsn8NbUnTNHrQQrCk5FGEfZOqGGQtYn9HkvYjKXpjlGGFn3TpFR2ec8hBSIXom185gpArwFujfkBSScxodIivkaQ68DXjR2Gym/+jh185rSpntOmM0Va1+M/OaJN22zqTqmB7kokncfXVE+y9xz9ZyhAnnY/3096Rm9P2+3Nu8pUh3fcl/jSSyv3VOU9gu60H+NxsYyV9dYbYMKdmNo69y1AwwPFw//RjrnjbphBWi1wxrN9oE87qOLmeY7Wqudr2zEgRsaJmnuc8tdN7bkpBClNrNRe4KfF5LkCmQ112qasurdFlLgRvKxf1IeqQZaL7Ca1t4xUdO0ylBFJ70qgqTdzc9dGO0C8SLrro9zzkIUcaJ7mdwKrfPZewPJ/RRA364gJKNEpc85JM0wI0BiSSbtcSwvBBIGXHcIzeQOMnF/Jfn/8crzryO/zusn9mbORyPO8GC2njjmiaCo9Fp1ANW4eSmuVlqC6rHc48KmTEXo5mIptRN0Or/SBguj+gPTKfrN6O1uhT+fQnz+bIl37aqJyDMn8MFD/eYrSqGsajl+TZ5G4Sc3j0Y+GLX3o67fg6Ygb4hQY52zlJ3TQ9u7moSsSUG81OnJuZXWOlENew/ffUmLr7b9ZsE8Wflt3Z+BBzE/qGYfXQaOf098/I6Tj02TUkOH0oeW2bEu85NUdxdoO2mg7UrzvfgVbVhKamWwO6GUFc0u9PE4Ut/HCEfi+kO7ac4475JG9+82ftLPncZx/K/k8PCYpVRIV0rwKQEqdE4IvSUuWKScpCwNDWRK09wNuXulpEGQTceONN3GfXV/D1rz6Fhz9WzfxXEHtiagm4dKM8TTzAxshg1yQJV1OlLFyvYRmIKaV1iGy2rXpv3YylkF5REXRHINydJHomD3zAizjvPA1ak2rz7Qez3P074v/6G/ylhDRuJb7oLfYd3vK2hfzbvz6asi9QamCLKnULP9JMVd0VAVRDwbdZcTVtPHuHGaMdSpi6RoO/VRju/3qB7u73HyLOjpzRjDOx7h2lJmIdjYC/wMTGNZAafzGgf1NLoMpJar0TiykhH+jA6FJkEe3OIlZs+3BW3wyPfhx851tPI6wuoZ4O8DtjDNbfRNzSUK/IdLQ8b2DNCnrfMNwFgoeBty2lHSJd7rP7gTzuCfM45rjHU9WXUOcbaAfSe/apU/GbdfBAobps4CbqthTSC2xWB08gJUsBcELSfcLhwPegTVZ4FALj4r24bOWOPPhBb7L3CqPktF6WPuXuvkd39ef/byjSwyOfn4lVJsv7xtefwaMfm1IVl5hsZhBIMqTxNI3wm6kTWBgk1akhoDIr/uZyQL2myWn+FlG4u3q17obP+3NGa9pLojUWEZUpLgqD0FC0eYTBIvxga/DnU2QJYXecbHrauM1Jq2MeW8Z24crreNjDXmP9t+ee+2B2WjFJtmEDLan8y4cVKs04pUjRCEsdADafRz3B+7rJ7VmXVncnjn37J3nPMd/il+ccwqIlt9Bp3wLFevLJjO7IBHUqYfbIaqqlSk7dkOn1a+mGGlUio3WcZImuzxptZbOago6EAzQaZE+OPeYC3vXOs4xI4hMflpF95W64LXfrR/5vRivzenXsc6ykeyVSff7Fz6Y7chmdpEfoKUx2816dIaq80cgumJ6Uq+EaUmjQv8u9bGbOcKzI36rmeLcu31334cOpBUNvO/x/P1RJR2NPcmNAiYmkKfJ+sBWBt5igtRyKjuk/eZ0Jiv7AWG2iKQbJUl7x8qP5wud/zAePX8xhz96TyLuNYnArXlgShKrrSsFSNXoXxopmWdajBOGOePGOVOE2pihx5SV9HvGQFxrw/ctfHMJOu6RMTl7CeCekGPTx9b00pjQTmlwStkqKTHvIRVyF2vqMFaWcXiJIjbZ11KE3iJgsxpi34DGMj73D+majwGNQ1JsF1/j2u+x/NVq9YGI0+XTVL14kxHi0KxW+f6fw/4c4uslmtEgV0IYc2+AXV8f1ZLCNzKnR0SRibT1eotPJcJ1Biyq+0TDnu84O7lWfNNdo7SAcDj6z2UCuGWFIWBBJ0PK9WmSNxcRjO8NgATUL8TSZXWNAAp++dMyjxSyc9w9svwwuOPdI6upcPP96/FhloIwoWEBlqhRqplcGOXBjNL0l1MEKos59peNJ0V/EwvHHmGkLGP/2KU/j4Y/W/J0LqIpb6XTmk67vGTHD68ZMrrmW0bFRk4zSLiiEcjfStdZ/O4PERwzKcXrlNqy+ZWv23fdjdswL39rcSj3DDXuHjFZPHm91VmaD3l7qib//fnDSNw4gaV1J4m8g0qkoVFCxj4AmF+g0zKAmtrahyUMxcYVJbureFqP9G84O6TFXTqbUiZI3aiKmTy0mcYyHDGfCZvm0J3Ynn4yJukvJ+iXx2HwLr8847QyOOPDDnPXDf2THXa4hjH9nJSMn0SopVfGjRNhwhJHc2g1HyVlMd8EDWb92PuPzHsJj9nsK554zZUYrotzr36Q5wQ+j052iylR/rW18po1L6ThNLesyMqOdHQ9gdOqmNKa+4dJbQti+Px/55K945avONhZUFP5/9r4DzK6qavs9/dwyLZl0IAktdEIv0nsHpQoKgiB++okg+Il0REAsSBVUpCpNpAhIFylCIiUhCYQ0kkx6Mkmm3Hb6z7v2OTOT0CckAfNfHx4hmTv33HP22mvttd5i3RcEwXErcPe+tG/91EHLb9ivye0sL60V+VCOOgG44UY6c78jYtUcbWiU6JSOH6WuM4e5dOifepcqQXE2p5iZWXb1sI/80t7GlX/h2dl22U/i/eMxhJumsjxRrnzk7xJ5RdqgIcwdL3CQLw4R4ngSN0OzhqBW1hCbJvLFgdh964Ow43ZNuOqGPVDuHAVbpzoGkVGp6wKF3Ak11EwRr2MHOEQeNTSgWBwJy9gZl114JTbZvIj1NuyLV154Cddd04GONuC+exuw3XaDoSWdcBqbkZRKCMNAUHWZQGBI8Ilw9ygYr8AYfHlRDMMejqq/FXb6yrWYMo3jbRu1ms+AXSMIAr0qj3u8iV5yYtNCB4njjgd+/YuvwjBmSpAKWiohMJ1zRzqX93DCE3if8nxVgWunNli910xe+aHyxfiEbrFyZWXS/SLKSv2ZKDMqp7SUfM/uMr1rfZhuXsjrFJcLonoU8+vAcNaWRlWS5EUxctGsGFtufiKmzNobTq4FBpFZIb2NSGrgJqx0l7PGFFUpqETlaSZMYz249u7411P/wjvvPYGTT/0qvEqE+nwdFs2bi5aWt7Huui769LWl5HYsR/SpqIqRUZNCjoNSnjbHYvT/4UuzbFRqA9Aye33suMvtKFXJXtIBl12w2owvxhNatVfxmTJtdmmmppSh2HX87qkarrzqeMTJNATRQpi6Bte0ENToYM6aR51xOfSTMa4srhWxx1y1N+iL/GmZR7AyGiOOV9l7KaizUtCQzCvyjBaCmHhhG4nmwjCL0A0qVIwQK0xEOdx+21XoP+g97LXPekj8EmzCL3meTcnrYr0iDu/89UpNUYRStf5I/A3huP3xox9fjZ9dfjAMm55GbTBQloBX2GNikHsaqaUWmfw9HxG03C4Ma0Pc/7c2fPvU/8AjV1iqizXPTPozn2mXW7yEoovUdcEBzjt/IL7zv7vAsuchDheLWJcWJrAMyrBwSJ5hcbPTrpKuUR3n/59pe7sxMGjFZ1aCyJTAkGOnBFJ3dmQaJuCF50OeR9m9J9KIjSnb3hRRREWIoaKiceeffohjjt0Rtl5BVCvDoBewoB5SfyFpNHI/ILKJK4Cu8o0Iqn1hFdfCzy68Axf94hsodY6D5baJKZlQ8qL6LrF7sedMDcR10ddOz7QfUh6TsqcbI3DDTVNx3gVTUQtJii8u9mul5t7ety/7+3qVabMvzf4wXbyJdrnwksH4/hl7o1wbC9fpRIGaul4InR6lmYubnF8FidHtbtfDc/bLfjNX9fULZlesQlV2leAQAVaFPlMUOGU+JpWO2J+wi8CwJvCCInIDYNt0XN8M8H348Tvwg2lA1ArXCEXbSb0ySVhuBgza1IpUhJ5c5QWU74+H7n0ahx5xIHxaezj0KSIsUbGgdB6J2LCUqFcNS5L3+ZJGVJenMMvjdC+i9E44DNde/y4u/fkc+b5eZNyLOPr6qr7fX5TPW6GgZfTZQORw030f7XLBhWvj7HP3QqUyDmbSIecVhxIpvNOpqVT2xXtqKH9RbsaX7TpU0KoGDqsZ6SWkVU2mVSUdfZF0TfHP3GEF/qecEEReJmiAbY6A07S2iNN7pWmIwymwjIrICREfTHMvldEVYIZh37XfKowioNVj3qwaOiod2HDTPmLzyVdXScz3xgWleacrXq0ZpXNag70OJcnLjSfrHoesHqwNcfU1b+OSn82S8jjRjVOjKPrTl+15fV7Xu6JBK9dBpBp3TCLrLrpkKL5z+vbQ9Mmoy1eR+GR48GGpDKv0QzhIp8xKZob830Ae+Lweyaf/Pcu7BKpObHov00aOIfBH1UQSm48MkcZufkqrDIleMwtIkoFwG3ZE1D4PVe85FAvtongheVYXQ1ARVednGOS9asSbq261ZHEhOvTBpEmTsNGmgxBGXnelpVeU/WVcVEFrMAvHMEM6K+gIjcyqVJXjNBaRPYKlvLUhbr2jBWec9bYEbRhjDwAvfPo79d/1k59L0JK5bWuWz+4xs+4FFwzBGWfugiScAl3rpH6jPDwweFUxhMToiVX+/0Hb+2XVsy+ggjZ1rk2DK8Ms8xyp4KSqA02cL8+jbBAGaPc85IvrwYg2h9HQF97ip6AnC2GJeVCI2AiEos6gEx1jCVrOgmkVShIAN2MiqByRjE00ipdTM5nlMEE3pVRaVomsx6IVRQNB2s3oCE1ijxnNirpniHYWv48NP14bz78EHHPcPxFEdJInuJoO3mvm6/MKWt49xwBqBF/wbHXJJQPw3e99BboxBYbWBiPV/+1SdujKtGuuQ8GKLjnR7BKvWsagmncrAEvW5GMAp2VxWuUo/1uKpFPWJVbqiaYDX7Ml2waRjWKxGahQT5VqpIsAvSzi4/J709GdwbmtqHHQ11epSHIzCIIYufomeB0dsDQbGj2MpJ6mybaSmZGgFYF31fHm+Zu83Z6EAUPm/DGiiNiooZg8tR923v1+CVo/+v9Bu6Jrp+v9xWJxs1qpNJ6THo7grrhiEE4+eXMY+ixhbdAnVXkCpT3j1DLyc7uAXv2ij+pefxwneDkVsYxOp/q26iXyqFm5mkqtdh0Cl/1zckszLDbfqphPy/OSu7nI2YJX2ktp0HZpUad0v/T9EQNbZFsUdjgzreaplp194eSS8G7k0Ol5sFxNJHHyuRFAOzWZFyHRy4gEG5xdlxLGUNRB5UerWaGUw5ZJNpEP1y4g9hmGPbvPyvRammBpmS6/R4sQGZRW5b9StZFjpkzdku71/eBFm2LtYb8XNFSU4A0vxI5rguv7hy3pzzPTyu+vr+9zQGfnkifIwzUt4PZbNsURB60PI5gNUy+Ju7iez4kpFesqxU9ZXWMfynemJtNdgSIRp5hK8kqH/F3XyGvt4fAkmY5jC5aB7NCyNKRQdFX0oUQXKqarni0g9wQV4ZjKnxkkppN65kHTfRimMq9OIv4WB7puKVtKW4Ph6vAqHZLNDNMSETfRUxazbF5nN6G+53V3n3Ezx8PsZxWvl4WuEiJniUT2Tyzlra3X01odqHUgoWgcDcGy0rrLnzezRaG7O8tv1aNQ2d9WmPTUHUBkU9PusBiApwg5NU4iZUcdl2TaQHWLOCfBreU0VDoT2PmNcOLJD+Cxv0OybaGh0LG4rUxLy85e7dVf4jd97kHLe1Hs03htqaPtDD6bnAE8+9h+2GkkscmzkESdIj+i51MbjIDKf6svaDNx8e5nuHzAdpPc1QLLMp5SY1CplSUoW+jkn1JKJUTMRUg2i1VAHCQpwD0QGwyluk8tUlpCkmSuuuvK6Z17GYdpBqJQg53Po1paKkHt5pSnq+8RUmggodo/37sCL24C3CiEfke6H/WTI8rVWNCo/hao61LsIjazsg8j40dBUpXyRupgT7yybHg9jz3dz7cnZb3LJlXE76rikayxw8xzbVQnt9YL2qE7RbE9+cMtL+Gn5wY45dt74frf/1PZ4cagyBYHwmvMa8We+Mfcprq+zpxypzeYrooE0bw97nD079cKw+wUdz6CAqgaaBnckVfX/e7hECAJ9oMX0tPqVK6zZ4lL4AhZSnwJQiitGySwlXJ+GEYwTaU0wVzFQOOsNImZLSNp3AnCnoFNATb62ZKxE5G8TiQBGTvM2BSIMxHTKM3m5uALIi2OVtxrSuGau4M2U9kUon3KKPqwoJUsnuo7Kwmd7P4tq8yx7M+lRwfNT32QiJFmxucZlrhjpWhJRwIpl+nqJwm8j2g577TjKEyafBuOPv4MvDKqU7JuXaGuubOzc/HqWkWr+nNXWtACKEBDyU6oag8cdRRw610norL0DRjGUjh1ecRBkHLhV1f3mLpH3ZjoLjfAHgHcnSM+5FYJsoejiR6jlrR4FuIEWyzUZ2JlQeRS1xzShKG5qgr3mEX5K0gGtwGddiBs+gTQbQtVj4Gdl3I5CkzYdhOSsIowno8oLsGmW/oKvLJMK+djmeGqzKtI9aT8cZSjMu0Hg5J/pGh7CjDTrVAicjeZy3OWebv8UIRcl252qTOY8LA5Z2amTXW1kCBMKqJGabsDESUDsdXWz+CNN3+Nu+5+Bmee9ZSMgJTowpojO7Myg5ZSNN9JAu33Nsro2wA88Nd9sMP2EXSjBV61LMLbsdiKrNjC6/2a7Q7aroBNvXjU+YslYBa2qjGkOqjd2GniRsS/V2M3Vp3rqOWbaR3ploPYr4qYuCkYYDZ6KN+QAeIF+QAw86pTncixJCaHlZRe6Q/fq0NcK6LlvSWY/M4MvDrqbXz7f9bG+hsU5Xy8IscLcVuX0pdaVPxHnXEZvMtzeJcPWpbESqlEVRryHIUQwiojqwCy7rV6Sl2zZBkFqXvAn1ebH189y+oQuhkoN8GkANMdjBtveBHHHncSWlpC7LXvX1ANxN6SgXvO+0Pk3/R+LXx53rlSg5a3YdDADaOF8yfr9Af+5jdsXHvdfkD8tiBeuIa7zjWr5Z5lTRO12NTqUxmxO2sk6XhCAQRV95tGyQqKyT+TM51kCjZkmC0IjKc/T3o+ljMfG29MCCyPqbRP3WM6wGvwaNmhF2Fa9KW1UQ1CtMxvwbTpCzBmzAL869kQb40RIUwhNJJh9eaEvVCoWwCdrnMrYMfaM2glqDRlFpYFrWTdNLAz0XX1qFiz0m5TsdFps6mMg2jVqYJWdbm770G3MZnRhV1WqiY9glxGSimpQKMIO1U5IgQRWUBFdHTqqKtbHwsX2jjo4IcxpUW6yeq5KO2j1XbYWlVLeKUHLUxzT10L/8lzLeVqpr53CBqLM+CyU1kr8fjW1VVcVV/6g5+TjRcyL96eP6HKPgnS9G5lJtIqCjOkV5pFZMSSbgBi15FAN9mdDRGEqmNu2XVAVI+an0eusBZaW3UsmqtjzJtz8fdHX8XoN2poLwO+NIVSJ0q2rhRVGbvuBjz8jxPh+2NEkd9IG1i9u3/LNwHTCqCnw316ru0O2oykwLERjWGVIJt0zwVWyQpFBWLX6CYdZcktlA5ztweUuOjJpkk8NMtlBi3PuAHi0BferU6PIWofazYMvRltS+tx482v4hdXl+Q+qVtgnQYEt/TuPnx53rXyg5aqFwPqZnQu6hzK+e3vfjcAJxw7AigvgeMwo9GvdHV1j9OM0QWn/BQuTj2CV8AJMufkok3tQGTBqdJQ7C7YCaWLHIn/miN2HuWajncmLMBbb83EU8/MxysvAxVaVfLXhIBH4+mUDMAOs2k5CIOqeME67xMDfvbz7fDt0wfDdaZBj2orFLRdpPkutUe1JNRcV70yaRtVLitElSqhpVeufiYNWDaRVPXB76/KXhL45HcKqUGZS3ePgrpTIwNeEQpS2SLRQTagmSZCz5OMa7lEXdVh4TwbcxYMxD4HPYEy45tqGWZdm+d1spv8X/1aJUFrFs09wkr4vGkCO+8A/OORr8EMWuCYZcTC9liNQZsaZNF3ly4AtmEiCtmtDWC5HL2o3V7gfnQBCGOYlPOkKgQd3cOqdHulkURzWK0TMHXU/BCGPQBxPBgxSOKu4V8vvIN/vTgZDz1cFtJ6EPaQkBVRNrWAJeQZM/J0OBrinyo3Q1q1PvC3w/GVXdtgGdNhhNmIpbfr9MMzbfbbugK069f3/HkdFJarlNpg5XlfTFTLCSy7HkAeAbOk7YmBFo29CGtM6GgPAzpn1nSK51w4BW3IcaMraNVxgw59HHslvo8g8oWjHSdFtC+uQ8ucRlx94+u4529tkmmJ87Ks3MggKL/V27vxZXjfKgla3oiG/g1Tyu3t67PEmzj+eKzdby6iYKbqWK6moGWZ63meuM9ZYqtBDSMlqyK9odhDEjGyWNUqJotoMek2Ip+jiBAWrdX1AqLOPAyjgNCoQLcdlGsW/vNaC559dhpuvMlXhuvMoKnxOjWL1ddmM0cK8DRjpSCFlDgjsEHudnRV1wDXAF4bfTyGDZ8KS58FROTRrggU9OOD9oOLuMfMlSbjkQ63SFe/Dmjc8HzeyyZUyzpytC/Qy4iTTpnDyncV8gjnsQmCoAqX9082K+5SDNqsPFZdeVID+TxCbgDctUx6YNtoW1LA3Hl1eG/+IJxw0n1kFcKwTHg+rnr/J879MgRfb69xlQUtDBwMDY+xIXX9NVvi+KMLyOXmdKnx9fYLrMj7hArqWPBqZWkISbDGCSxiMA0LEbOlYUnjSJBKYqSlwQto3wjY+QJlPEUHmMoNHW02Rv3nTTz97Ku4+y/05lHGzmyUMNZ59jJ0ZnJWh2ozUOI92Tk4QzV1xbBy0SNoP6JnLNC/EZj09nfg2GOgY16Xo3rv70PP7vhn+S1Ek1mI9DxqNR05pz8MrQHlDgOO1QcL5i+BaxsIojbkCx6cXBkw6MgXgGg58fXRNSRhOVXY4PGCjb10SaZHDJNEe2bRmGdb7p4aosBFZ3sRM2ZpCIyN8P0f3oFx49Iy27IRePRJ+e99rdovpyNpyAHbbQ08/uQhMPC2UPcUgmb1vJT4tppHyo5PU6vUVYFtFCo+GGYexPDGMpZxYFgubKuIkpdg8oxWPPGPN3Hvn320zFAQO4Uq4vrSEMQ2crk8KtWlsuBMvQ5h6CHfmKDS6XcVGRkuIas7unC+dAqgnpIewNKAPXcBHn3wGzCSiQAWINEoZ7oi924FglYrouTXo7OUxw1XP4cxbwDj31TnSyIgiVQdPATYfgdg1z2AkSMbMHR4M1xXRyCVSgTLTB0npGvMoO1+yROJ1PyYjTxWNszIptMXtVIOE6dU4MVrYdYcGyefcr84AcrpOcE5AP5rxz8r9Lg/61IxncKP4ZV/2dQAvDJqDwwYOB8u5cFWqPv5Wa9i2Z8PAuXKRkkE3+eZyYJmcpEQD6us5bxQRxQVYZgDEAbNmDsnwCMPv4hrr52DxR0qK4pyvvJ6FlB7Ie+i3MmzsCaoJYPaWW4RlbKa/5LalqlOiDqMeLeq4U0MqwAAIABJREFUIlkNnohjFhVhdZ7V1Jn29NOBqy47EJY+DwgJ5qfm04rdg968Wxg9cV+Yua1xzNG/xwtPqaYvQVTf+34eO31lIAYNsdDUx0Dfpjxsl1DOklD2lKi9BcsyELOjLigTNT7LfI6UWZeSWRXvXTa1eCciCsk1olSxMGVqB7ygD8JkGL598p2YMx/wZQSuMxmshrvSmzv52d+zir9Yc52B1g72a268eW1884SNgepsWcCr68X9QqF+xKZc/r3q+QgjDbbTQBUsxEkDFi7W8PLLU3DrbVPw2usquMQWlhgIXVX50khKwVFSAotzlcLr6pqJKFCZO2da8MMOuDkdJbaKBUhEOdQMfKC6sVFqq2KwLAyrsN+nJF90oYlzfrgrTNpJ1pYiMRRralW/JGijIXhzXBEHHPiEsH6OOrIOp556GHRjNgYMrGDAQN4Qmn/xfJFIphRkmFD6FDlC6LoiqZuey9PglHO6lNC0ASVBvgbDclDzTHSWgI7OBPMX+ijkh6JcHoAxYyKcc+4jErQCBQeuRIjzVvV9WRWft8ofd97RntCQHLDHHsCf7zwaOfM9saJYHS/hoxoOIq8K3QiEbxaEISy7CZq9FsJKP0yaGOD2O17Arbe3CmSOEx7hBdG0TtlA4+QTgR122wCbb7kbLr/0MTz44AJJm2w6ce3xTMaGkaY5sB0dXq1TZVRBU/Gbc9ajzrU0EE0hHt1UOHagwkiC9rrr++Dkb24CI2iDFlY+Bwez5Y8mn9TJz+a4GvxwGG64aRouvXw6brl1JwwYEGHIEGC9YY2oVUig90SBIoooLZM28zjykaNIIPeaPQNF2lfUQZnPykzXlnOvGjLRykQ1+Lwgj/b2COVagkrZwKRJizCnxcK8+QNx0x/eQcVXulm0aA3KYBv7v44FtMqD1jBwkGXicYLvx791GgY3T4ZpzFYxu5wFZPdZ9+MWVs+/++gFJ5LAy3zbzKKExG8dTp6zVDZOuKj647mnJ+G3V4/FG6NlgoOaZGSAjhqECB/2tQaccNye2HWbZtjGfOguu6TNuOvWmTj3J/9B2QfYDumi2nKUIRVe2hU1VTmtvnd30GaQRMnavF7FEYeukUwQ4893D8dBB/SDUVsKW8ionxRkn7Qdfrr7twzFT+a4zLRDsdNXnsWPz90TQzcoY9hwDQ11FCYugUpPwvXhJhf6ismkmwg8Nde1LLU18Z5zq+KzFsgo57ryI2qeS48i02U/oSLBresNot+cgA0nEx1tMebP1/HulBhPPzMd9zywUDrMfgg4jvE7rxJ9/5PuwJft71d50KZrNGFJedEF2+Hcs4YiCcdDNwiqJ3IoQq1WQaFQQEA1R0ZIWiYKG4VpS2PHNtUm0mwEQQTHtdHZ0Y66AhUGdSQBGxcxDMqr046CwtsFF2G5rLSSRIioiBgDYTrrYNq0Kl4fMxePPDIKjz5K2VeI0ZNk08yygsT+X+Vx6OE7or6uEbruIwla4dg1hEE7tGQI5s9ZD1tvewfKkWoMy8mK/0h6VjZWWaBlvoEq7aq+aRZCXUHLjjYXtRighbjz7qE4YJ8+yOs1JAFnxCv6CHt+YrZ8l20HEZfMsp8gD/4/z/5Ovg6TJy7ChIkB1t9gY6y3vg7HaUccdihwJ+ewwlzUpOsu6CbWECLklkhjjRsRecFKtzkVEFiGaZVuSl0QU028d4W0z6COLeihDd1pQi20MHt+EdtsfZ/IrFIVOaUZUxu25csWmB93vSv6xHt1L/JF449hEJ3K57Og5etoKE5De0crTCuG7RDXS/dyNiv4MJVrm2KhQIHuSXtLWHZxp7bl59iJdHI2fK8qzaRarYZcvgG1igdDz4lrOGd5ulkQGCFJIXPnV/DQI6/g8SeqeONNoOKJaJgA0HmmMkk4TwI5bf3x1n2x/4GDkMtPgp3rROfSGhzHketwbM4OK2K3gWhrbLbl7WhZCMhgKAMWpcgJSoOqZpPKqd1A2e6gzUJGlc8qaJlUHSPEX+5bH/vuW0Q+riBJvJTP2qvHkL5p+aD94NyW6CiCStQzUOR9Ak3GvzMNlj0QzQOa0NREQfKKbJYUkxP4VhwLGlvBj1UjSRcDNpq2kVgfQ9cy4kA2p+5Jf0w3uKwC6ypbVJNKye1w0/Zg5PNY0tmMP9+5COdfOA70quaozTTzT3m1ygErcoe+aO9dLUHb2FjYsq29PJZz9Rt+XY9TT9wGiVaVc0uUlGCZEUKWRVJbcd0q2U9pXhBFI5C11O+UKg9q8Kf+HhH8MIZl2YhiExZ34aoj7nFx3B/jxi7AP58dh4cfno7Jk9LyLQJYtXFZmi7+Viji2nzeeXDRAq/5gp8ciLPPPhymORal0hjk3TZUK0tQl+9LPxlYjgGvVkHe5TX0QRisjeuuH40LL12AgNIrsSIKKMa28qjp7hBnIEC1OLNMu0zQyooxYCZUkwhx3982xt575eGE7cp2pQessneL6+ODVsEZdQna7N858iq1t2PW/LlYa4NhHGnDJD/Wj6GFlhJ000OECQXOjbTsVc7v5MlKwy2pSGNKnp18h486An0Y+CMNWuZxliCc3eouqv4AtMwciJ13uQfVqvL2kk3RxXDU8F9jIbJaglad45DU5QErAt587UgMHtJXJEdMKxB0TS5vo1IpqRFMqt3LTMsRCtklgV+THdaxTcGkVqtVNPRpEtQRzzO64Yqmb8vsdoyfMB/P/3MSbr+dmVrND+neln1518w/UQ0rt/nAX3lpQ9Yx2vo1o+G+u6/DhuvmEMeT4ddeha7NAUJPKRQSqUMABonqWiSspVoNcOuH4vU3dOy11/OohCkDL+OepEYL3WHy0UGrWEZpGDLjxxocPca9D2yM/fZpgB4sgqUHYoa1YtTGTw5a3l+VYS1EHERDx9KlS6Vx1zCA3XVfyP16aMJIikrChnI7rAQshVMWWTiWs3FRzqy6OBZw7srI+rig7T5OqLuRXa+quIKwInjkqm/AyQ2DF6yFX/3qOfz6yvkStMzvxYb6sR1tHVv1blP74r1rtQWtYeA4xLiHydSygU03A4p1Ojw/Bo+lHKcQvcdXfZ2BYpF4X7qF+6hvcLHu8CFYe3B/NNe5aCgQXZVDqVJFW0cNS9treHfybNx//3uYNl1pVdGLles7YOAQeai5N0de8nfA+ydVTdJHszYMtPzkp0fiysv+F0k0E7oxH52LRwHhBLhOGZbdCE6ovFoofOAwqcJ0TUQ0TjYNlIMItrszBvS7RzaPSoZQVGTZZcQxVGncHTQ9M+0yTbM0aC0jxh13bYAjDh0IeHNgG+FKD1oJGZm/GgLhDH0lddPZ2YmGemoWszOcddQoKUQLU5YUREBRnUJxkmXmnMrIULiNXWIyhLp75ctn2gxm8tFBQ0ICdbWogJKgiJpnwzCbMWdeH+yz68NYtES1/dTVWVsDwZgvXgh+9itabUGbZdvskiV5SbNDgROs9L9TcJJa2llTJ/1/lppOrH6Wc1EudI5GmQyEBsq1oQFVchI07ckoMZ6Baz744W5rTQ3QltIxCk89+VvsvdeG8MoTYWEK4mAyHHMuvOoiOE4fyIGJNBzbUju9Y8CvVmDnWSfGKFWH4drfLsTPL58ou0HCs1iX50534H6qoJUnpDItg/bG362Fb5ywIVBrgc2gWMmZtuv56KY0oBiwlpNDUKvB4sCd6iNdapJ8EGwU8TBZBWhCLXJwSgVDeRgXoEl3roqEMqzSo0iH28us30/uagv9T/fELcG1+qJSpsACexwj8Ieb3sNlP3sT7TWIIFCuvnFstaPtvyLbrt6glYdU2NKwjY3dnLltFIebuHayV1tbpyPPmMcVbtDLdmy6y8YE4FEySktdGhlzDTkOxiXAU4jxbNnDu5+qe6iZbwPhJk4O+NVVp+OUE/dGoX4RUHsdlY5xyNtlwAyQVLnYEuh1DfCWluAUi7KAmTWMvI229vmob9wKE94egp13vh9eyBLNSfmhaedpGZr2x2Ta9OnwTK9HMWwTuPLKfvje/2wDeNNgatQKXlEHwk8qj1V5S5CD74eK28pDLDvy7CdIIzBVnxSJXJIE2DGm+iL/1UFI1lSoGouOVkyLixIQ+4ipe9XjPNutF7Z85u1ZJqcADXE9YC6llGweBogO0+B5/bBg/jo45ri7MH4SEKUbORL8V3SSvwBB+4nlAa8xB7j9gagBSAZl76BgWhh6FVHjy+WWolqluBf/+7O9DHxL093byPuMoxA/+N7euPa6HyLxxqLU8SLy9iJoIXvBNeg8hBMYECSwnAIij67nBGhUhOzOZmilVock2QY77HAXpk0TECIiEQnvcVldgbt80LKrnNLV0p/XdQNaGIGNu4su6oMfnfUVJP5UWFrnSg9aFay+EpPjyE03UatW5b+ZdUNGBIOUAAjOZrUmUeFICFDlGddsglcO4Pm0vEyQd3JwbUITee0diKJ2JTWTdog/ELTL6EplgavURagXze49Z7yGSUmetENtDkRrax88/1I7Tjn9JVRJOKCkr5t/MOysHPnZFscX76e/DEG7su9aHTR0EK1EKRhTCzBoINAy9374Hf9EHL0FS2uFHtH9j4PbDlFkSMQjlabIhlJVYHlsm2JqFNKoOR6M2++YiHPOmiOu7OVInFwFmJGQu8slvBz+UJ1pGbSpMHiWadlhpbiZAfzPdw1cdfkRCGsTkM97n4PG1ofNaXtmNXX7P8irTQEWcQTTzaEWRIiTJtjWhpg1K8Ho11rw1FNj8OAD1HlWxxYynviVTAfYaWdgk02AvXcB9thtKFzXge+zYtEEkyzSUzLWUcwq1RJQfrvyD2ftFMzjn9EtntI9VQYtGxYNiIxBeHNcgIsufQ7PvqROMylZ+Uu/5r/0X2BFI1rT8GgCHCL+rvI/OpUDrYuvhqa9BoRvw9RK0ENXEbZNBm0onWlxvY+YNRSAI4pjRBqV9gG3MAgzZtRj6y2eFvijaojwzJsqUDI7GIZ0vrNXd9CmDnLZ00kbWKTmHX4Y8Jc/n4iwNhaWvqTbUKvXN+LjgzZzoV/WgV59WCwVhIsgycG0mzHhnaW45rej8Ohj3fNu9hJ9wVyr0oLde37j/Q9txDe+vhl23z7CoAEe/GondDYpxNCLIJpE6S+zayiOfPwN2fiHZ1kGLacAlOElyZZys2QKKaJ9Ocpj2gwHL79i4OxzX5KRnukYCMvWcODL7SC/pgftrpqBF0UdlE0wAXPEAr17Y9y3sdbas2ElLaLDpIdURuR0oiqazRFyMrowaRQlbusEbwRg/IpKv2bDtjfBySc9iIf/DoE1JkYBUaJ8o6iRpDJtJq1K7DE3DSKQUzX+rJ3MI2OiwTETrLcu8ProU6AlJJAugCmLemW+Uo6vaCOnWS9VbwyiInR7BN6dXMZlP38Szz6nmn7EYYhKZaaTxzmzcIKpWJnAcYHtdsrhkou/hiH9JmNAvxJMPYGTZ0OvJIT3nO0ojDIRU3xA2XRbEGBhqpLJ55WXJmUS0xCMFRDHSzkkehPGTggwa9baOP6bjwhmnP0OJNgawJe6i7xGB61pYWEYop8KItUfsZlBNQ+33Lk1Dj6kLxxtLky6mUumZdAGsiCZacWRJmZHlQAPF7544XB+C1TLNWjGOhg1Gjj8iJcFu+xTNlSnoJHiiRLpxCXGHUPpJGdBS6Ezzn8zyJQOUzNg63QoAFpmfhuuOR6m2do1w15ZYcu4EQGA5YKWWTAI63HlLyfgjjuBrbbmiK4++ecLHVpnJSVKkKdMYy+WHjHzssrPsugs4Jmnv4UhA6ZhnSE+4rgqBPko9ATSyqZyGAQwdVfGArKxMtvKOTYS4EYcWXCswdJf4Jmac1/TtkFP2zhpxBtvLcXsWf1w+nf/gXKFm6kJ13X3rNVK/1pZ92tV/N41OGjtY4DkPnFMlw61UmK04cI0azjxZB1X//ZYIJwIEx0wIp6vFBxPdJw0BWinqZguSvwGwiRCHNZEFkXXXARhA0Ksh023vA9L2oD2sg7dIaqL64sEAFt0j5YNWgLomWl7BC0tOsIIrkEbEGDqlFNQl5sIy16w0oM2O8v2DFouTJb1cWTAtvpg/jwNC1v7olpZ770DD7lx3Qo9ZIFRMMw5UYQjGagux2O+J5I57NDz+PnHP+yNzTdoxeYbF4QQgKQqaDii3aKA53VaprB3oDY0dp8ZtERSBXGAMMhj4SIX6667NcrlstKo8j3kivWYOWspFi8x4Ptr4aADbhBoZdWzESHaEwg/S9BqjuPsp2naHrVajRn6/lURmB/3GWts0Bp6nnGanrQUOkcgs7EhbnKbbQa89NKp0JK3YOqLYMh4Q2UKVrV0YJczGpUjokRMtJyCi4DSNfSps+oRhXkY+SG49vqX8JPz2pTUZ5o96XYnYHopj5VEq8q0DFp+RtptFn6oAy0MJGjZjHrj9WOxzpB5SJJZUsqvzJcSMlfn0WUUPtI/p78d9P4YPaoEw9oW++53B8ErWyz1MT67rmKxfmK51LERL1Xm76rQwMUXbIED93aw1eZFRGEJMSqwdB9RXIMWBbByOcQEgpPOJ3rMKmh5PWHC3kEDRv+nDbff2YL589WnDV4HGDCwL7bbcQc0NQ1CFNXh0IOvoT6fbKSu4+7RVmv7NIbUW5qmeYFhGEdRRyx7GYbxWhRF26/Me/5Jv3sNDVrjOAPaPSzUKB8jbaK0bDXY6dQBgn1eefU4DBkyE7Y+p0fQqlsq+r4MMo1iZDFqQQn5gqMUBilLEzoIYwuB7qK1fQi22OpRlMhaS2fOruVI5pE21DJBS34pu8dZ0JILqMj0hDHmbeBvf90Vu+9qIQynfw5B+1FyM2o3yAI2C9psQWVyqoQwGlZ/vD6mjFqwEb7xzUcwkyeKDIik3nCuruHKnOC0VeON5Ktf/fJQ7L9XjPWHcYTWLjBWEUQgPY+4ZJFq5UWooBXsq1wIBdETRElfTJ9dj9/89lncc5eyVy1X1cbo1AE/Pf9gbLfNSHz1sMtB6jE3aQvWVmUEYz8qMN4PyoP79Olzz5IlS+r43TPpIZlP6zqodGKa5htBEGz7ScG1sv5+jQxawu+lmSGqvQxaZjN2itIFRYdsHXjowf2x61cqsMwZ4tnc5VmT3jUpk4MYVo4OgDUp2xiVll1EWElgOgXEpo5SsBbO/b9/45Y72lSWCVS7STmop49WRM4lF6XZPD37pr0qloimFiOnAdddszVOOGkt6MlUaDFhhKkvjkRZqm7Y5e5HniobWcsGZ+YA2I3z+DAYocqu2atn1pWPIoACvjR93n7bQ5hshp///Em8+rpXt2gR6EjNl27quOx9sY7zxNydzTuekwFssw2w9+7AHrv3wYgNB6HfgDyiYKkIEpDNFXo1cEatdg9TGncEk8g10TpFG4zn/+3Nu+XW17/32ptRNKMF30kiHCIyNlGExj7AX+7+FQ45+MfSNBQ/M2DdGjB9+YCyDOOUMIr+JPUOj0s8+nC/TAVIuNnK8iAUlmtB138Rx/FPV1ZgftzvXQOD1trSte2xHPbLipKxRapNJEh2JaGYf/8hX3zBCJz943UQR+9AiyganoMfkBbIwNSEoN3tNNltkZk5v4mBshXAiwbinfF9sNfej8vxjOLaUiaT/MColWzC5cIFShggz7MqaDUe6YjDpuueH8nfssRsmXciTGu8sH3oOKdzRhxESGIbuu0i8Nthkaro0w+HJb9qJhGCKWfx1P0vqxh6s/iIKY4MD6bVjJnTTSxe2A8v/qsdt9/6n28ubke+1InfMzgFTpqirNcbBqyztvrKzc2ASEsnwLBhwG57mthq5DDY7D15lOnhhUZIQh5fqIpJ3SxaiupiF+JHQ3HLrfP3+9+fTHim6/oNPaGPkhGnFqqpFBA/j028kEgXxSOoN01np5yVnBpH4VEUmst4HXymlgNcceVw7LTjuujTtwELFlRx8klPYOZ7BKrrCLlODIxEgFWusbzGBa1l5O4LouAYPjfRC5OFYCASKJ6ynaREiuUDIzcFnnl2XxSKM6Qb7Lo5KW8NirXF7HTWYAl2lkGn4ITKs1bZNYo9hl5FkNTDMEfi2GP+gqefAnSLYAtflX7y3qxLnLnFcamzZO+Bt5ZMzy3GQd6u4riTgF9edShcbT4stCOKOPJgrs6prmveRLm0BIX6Rni1moxRyJiyTeotk4fIzYctWXrk9CZkFcE/SNiYa0DH0ibMmBbggvNHYfxbwEGHONhh5+0wZO1GNDe76Nech657aKyjOiWZVm1oaCwgCdnpZUncDp2m43EHQn6XJIFpJKjVysg3NyFoL4tahe00gjOjWsciTJ0a4W9PB4VLLpnbjYLLuQkhUAZoWE4NR18ezTrD+ghoY8bURV0yP0JKIbch/fouiSoBcP75G+E7p+6KQh0lfdrguAZqnoZnnpmHb3x9LGLNRCkOYRftdr/Tb+zd3ev9u3r5uHr/gav/nVZii66xB98jpY5YWhNBwpGByr08/LgkIxjAuHf2w9prLUFY7YShcdRAZ3aSwtVwt7vsZMDxlMxhIAngBTnzhloZlluHUq0OY8YYOHj/l+ETVmdoiFLKYXZPeoo2dFHzJEXxmri1ODAIuMdimQef9h3gyp8fBb82GQ0NNiKvJBDDHMWkaI7lWoioKyolHvWTle8IOcmi88zlSrWQXq4CGeLoRYRBAS/9622Mm7AEW2y5Efr064OmZgduXoPj0rsIcB0NHgXNEcDW+e8B3JwtelmOY6mNkFVMRNAJsc7ZcUVHGLI1p8Gy8/C9GJ2VsgihX3HFZPQbiO+9+TbuvOsulIsNuWNKHd59/J6OSfPt9IhBvoYB5B3RfFcVFo8mwtUG3DwEI37I4cAVV+2P5uYIRhTAJo666mLevAVo7ZyFuoaROOXEf+CNsYCXbagR9gDwaRpbn9vS7+Xj+tw+f1X/omN1zb6XJs0MOMvSEPtpt1b0lrqzXoNtCtD95pvXwRFHDEPRKSHy25HEgTBTpDEigIGUJCtvZvNEEdOVIZWOIK5KmVoVEj+7pX/FmDFAjQKFmSdOD+psT0Ka0ogiVDJFfzBI4pw0a2zLkwVHM65bbz0WDfWUvFmIupwPv7YEjkHgvAfHcqXrGsVc/Kwu6E7PepVO8imIo5dPgRYe1GyaN6+E1kVlkaPJ11noN6gBhl2BH3WgkMvDD3g21ZS9Cgtc25TgYw9AVD9IKIg403Vhaq5UALEodPIYYsOrMus2ErmMmheTH4vWJQuRyxewaEENDzzwJm68McSSdqBCwFkK6qDBAZvP++7TjN33GI4oWCKcXktzELAX4drwok4MHtqMHXbaBIPXMuBF76KQi7BwZidQs/Hv59/ArNkxfnLxvpi3wMV1v2nBtTe8BT2voyoPEbsDeLGXt7BXb1ujgtYt5J/0quH+SULFCU1ExizdRshSNa1yqXgReAoIYGghtt8ReOThY5Ezp8LEIhg6tXrJsicIw0BCWUaZqXJXV9pSSsc3bXDpIfzEh86s4q+DRx/0cNqpowXqKOJk0pKhKEv3axnlCp1ePilqipkxtuFYFsKoTTV1TNXtvvKqzXDiiTvBsd8DorlA2AnHspEElIihYTVLdnZDle6wMgn7MErcZ1hHwost4L3pc0QpZK21hshZE2YEz++ARhy2H4i0j23nBdXF+a5p0l6FGGKCKChcrjDDhm6J6z2DmF15i6LmYQlRnIceD8XixQ4a6taFTkqg0QE37yHwlghBv32pjgkTF+HP947G3XcDMv5OVEf5wQePwA479EXLjAlYf9hIQb4F0RIYBQMee1qOg7alFXQsrUCPc1gyvwPjX3sXP7t4Bo45Fvj1jV9DR/U9LGytwwtPD8T3z/ir0P3S8d2w9wU5Z36Gu7bCP7pGBa1MDBidWgzT0hAGnJSyVUile9UVNAzaUBBiGEnQstJ85+3T0K9pAhxzjpyViHclCUBMuOiWJ0HLcxmDNm25pJ8j4uVJgBo7y/ogmPq22GmHP2HqRDlVg7R+Fn9pYa7sHlNquHq6aVRK2c2/dhWTX7rPCT1ZuwK3UAD+cPOmOGD/jZGEi4Vvm8Q+oqAmusHU4FIKhyEsI4HhWohZFy6zZXyGNZUYWNjaIWORwUMHC9OJIyBaeLjMYsz0Dl3u1CYWR2pkwoC1bOUuyCOKadqwdEdodRSJV5mWWG5qOubg5NbCN497Ek8/k/KlQ2DTkcB22wKbb17A1ltvihHrrYeAFEInj4WtTbj68nG45Q/PIFcA5s49FX71Xbz04sv46bnAlZf3xdbbbY62UicCzUKpGmL+vMVYvKCMF59ZiCceA2hfc/c922OXvYYjCOcgcXxMnprgjVeH4vs/eAAEkNCULQpCGvN+dmbZZ7jNy//omhS0u0HDC5oEmspcVAyMQ57tYqG9MYHyHKpEwukrG0qj4qILR+DsM4fB1CZCF0geW/6kppliFcKgjTnnZSClKTtzhWdmIZ3NKNShrS2AnR+Exx+dg9NOmC5yKNyxs4GNGvmkxsyZPSRLcYPZPQ1aoctEMEkHZIc0iUUAgGSCHAUEKN9sAJdfthG+dtROaO7HhtZsJMZMaFqnsJUoWhcFoahYumxMrUDQVmo8ZhgwdDrkAeVShyhp8jxp54qIBJjAUpyqEq4yMEOAEGWEkQeXreKY34/iB2pIzg2VXkdBUI+wujGuuOx+3HqrAmQcdBgwZQYwebKSDRLxNn5CCPzy15vguO9ug5pfhyFNv5OexE/Pz+GHP/wKbKMNUahhyrQKTjzxbbRMV134xnpgUSukOVbzgY02BH567kDse8DmSKJWBBFBI47gxie8E+CVlxyce/6rUikFIji46p0M1pig1U38NI5xBUtXAUSISBTDhCUuc556+FS6F1i71Kv8NyBnAgsXHAsdb8KOKqlqKfmlKfCBuZGDXAlapd+sGlKCjRJvWj/UYOZdeFydySbYbPjfsXiJKNco2lh2nk4RuqkzWQ+dqDS2SGwOaajSAAAgAElEQVRwLIRpg0k+g0SHiMB5Dq+UE4GSiAEOOhQ44MAh2Ge/4ejbNwT8MgzNFxUMEclboTXHszJ7tBRSjxESwkmmPj88ihVLh0Eq2lLqXrAfIPNswhW1SObcvNkGO2uUvo1Ja2cVQXLCEDzwl0k466z5OOfc/vjuD04CnMWoBSbMaHO88koL/vHMaNx794vwlwIHHgRce9spGP3GRBx96KvyTMe/cygGD5wHI2YHPUFi9IduDsGEtzox+pVJqHX68qyGD2/EDjuNwODBLoJgDmLMgeMqG9bOSgLDGozJUwzcc88cXHf9TKnKnFxhYqVS3mQFkmav3rrGBG2+oL9eqcTbSKISWC/NtNKORWpKoZpAtONQwHQpo3WGdYg77xiBrx0xEPBboMVlGGYRoRcrobnUnUeJQLHZkjmgk4XiShnNjJuYZORWYGjr48lHPJz0rdEo0zyAY4dUgaNb3ZyyHcq4uTugu71ulnnaovCozJj1HmT7bDZKYgwrif32BQ45eCD223c99G2qwTDpFpgZmvRm/QhlQlXtslnxe/MwyWNCel4WY61UwI6z4pTszvss76GcKjtqdBOMKZ3LaoTEeRdTpy3FQQdOwcOPbYMtd1gfrR1zYVgJTG0DnPi1v+C553yQg8FbVOCtYl/IAnJ1QNtSYJddCJA5GpY2Gbp0oBP4ZoRIJ8KqTsZjhGEKfpxlOTcT2rhQBkf0yDxRCDWcPOa3xliwsD9+d90U3H1PqyqIDOsmzwu+15s7tyLvWWOCluvm6qt/hrPPukhCNe/UoUL5xC67KzVcXyZo0+xHZ7fhQ4Gxb34dtkZVmkVA5MJwXMTEx6XcUpVaVUOKy5kzYM0owq8EsBzqYngIadloDYal74Dh696EeW3K+Z2X4boWatW0+5xejarFu9k+LOW7taV6yq6qOkGCQn6eMqOcy7qgvIaW1FBQyQzPPLsFttyU2OiFylsntZXszUKSRE2wQzo3UseCrODXFaRTVhmJ6/xzpeYonWex/UigmawceO6OYRUKqJYi5Nzh2H23p3DfA9uh2MdBNVwoCiHF4jBc95vH8fML1Xe/497DscWWQ+G3LYVXSfDam7Nw3Q0vYGoL8MdbdsThB9fD1ubACLnhBQjNEiLW0pSmYUdblC8UVZLPyyD2XObslMQNEekerIa+mPjOYixZvDb+57QX8d50iNJmkuA4APf15r6tyHvWlKBt1Aws9f052GqLrfD2xIVwdJpgZSHAU2zmjKowxcwZqhUcolBUB8+bb9ocRx/ZjCScCVfPI6QCo8VFryCRPZUV+RskekKCCrhgPGHv6FYOlRqz92A8+vhcfPPUd4Qkz3JQ5rbkrNITN0jE7Nr3Ssuo1GQjIVHYl0+kKXUmfk4P3fQyJGj5H3JQl7M5oZn/+0PgF784ArW2GTC0ssxEex+03ccCBS5h9uTnsrnHTSR1DuCmIJKpSlZG7lXCszWx22p2zMpGsy2ENR9h4uD2Wyfi4MM3QL/BLnQ7hOf7qKvbEK8+34nDDn0ZRx4HXH750ci7JWhxCbbJ39oPYTACG21ylTgMjB33dTjGe3CwBIbsHDzwq1FSErtyGvUNbhY8E1OPmRKwyrlCzuFaglAL4IUFlGoDMGVyAw7e/xFR2RRqrothqK3azrE6cq0BrwF9zb3aK+Fzc2a/igkTJmDvvU5TciY9mk7E76qxi1r1CoUcw8wZcn6kmgUr4XlzToChT0VUWoq6enZEK7IgqVekFqtijUqZKv+fQ8T5KCc3kS8uB25jfxkvFOp3wGYjb8PMWaqpYlp5UXMk8ED9Hm4aqXlVj+ekErMKWpbuaUGgHAt6Bm36Hfh/DXmRbMbcud+AbbwLPazANhPp9vbeD0hlafHgSb8t56By7Rx5yZm/Z8Byc0vvMUEtvF9xIiMeQhatQk4aZNUKy2QLuWIOfrJUUSeRB4JB2GDoP3Hqd4BLrjwSNW8qClZNgUqITzQ3xJhReRz21adx0unAhZfuBTNeKCIGltgc8FqUKwNHZ/y/0OKzo3CkqzaRLv9D1WLSHQtlvwEtM3OYMq0RXz/yMfjS0TcRRrXVEj+r5UNX9T4xbJ3cGeuPaLz28cfuh2072GrkTpj6bgQ2NpXpB7evsIsQkGVMRZtLqXMEqxaBC85bG2f+754w4hkIa/PSTBUg1hloHBXVyaLQtKpkQTa9woDdXlPNd/nfSQw7n0O1NhjPv2jhyKP+IRVlAId8TxkCGUZOUEJZps3muF0zXNlxlT1mFnRdQdsVGOrvBN8bA7+4YgROO304LG0aDD89d34uXkAcZyn6WiwByw9UZ2zFnuI/qehaTPS0wmkTo61J+U7vWk/6A15Eu5AErtsIj6M1TYNpFWFqfXDHbU9h+nTgvPMPg5/MgmYshSZO8/XwojyQbIFTjv0rnnkmwWvvHIA+A1qhowQjCWGw9CWUmcCa9MWgjDlB4OYXU26IRxo+IzXH5t+X/BD5+g0x+tUaxow18X/nvALoBdRC/fEEnYes6rUsS3V1fOiq/syRI5v/eMQR25968cU/Ram8COPfeg/77XWOZDfCyplxu85h0tRR8moCdifKnB6pQSAgBkLh3hh9EoYNmg3EM6SBJIwhdo8laCngzaAlLJLW5IES+ma5yDLZddG+cIFkEZiDoJkjsesuf8DbY4njNWX2F2qRjGPUS4VpzweVcXI/8OfL3Fi1GbkpTppQvQkTjkW/5hmIvBYUOOqJSCJg0623T4RnVgIsuLHV1JlVvGbTbCsXyJKY/2RBS/GA7vI55OyEYm40XKOjRJHO9xFKpQryuQYhQFCIvHOxhq8e9TKee35PQK8IOMJ1VBanUbdVNwL/GVXFYXuPwk47Ag8/cSy8cAxMU2GsxayLXWppkFHJkWUQTcLUl1d2LZxjZxo5lLTRkVg5zF9kY86cQbj2+n/jb38twSfjCM4pQPm23t65FXlfrx/Xinzoqn7v5psUXjzz7KN2PfKYveHYBlx7AP7vzN/iumsfV8iWjOXDu5H2cdS0VMnKyMuOxLWOM5q9dgH+/tAhMK1JKntm0zoGbZq5Zf/WSDELRYXB0JgJNNT8MtzGBhkKl2saYrsPXhsV4asHjJGZo/iis5PMLJCaVisiQqZvrDJxty1oejfTJjNNq/nTbPBkqlMF18Ox3wIuv2I32Noi2KjQKR2W6ci4prdBKwZYMqdWpH1K8aiAUGdW5SqQkijIkWWnQK5TefrwxfckxBmn7tzlkg/HzsGucxGUPCRRDpbVhLPPfBmXXrot6hojlCoLUWzIo1rulO5+oveHr4/AD8+6D888Ctx5y07YaUcTjrsAcVKSAE0Sfh7vS6CIHKQTyPMWjleaabXuERjvv0b+lI35rTksbl0XBx96Hzra6MhnIbKC1eYPtEYE7cYbuNEvfnOqfuDB2yP0fJhaPfxyEwYM3FdsEUWELLsTadBm5ahmFBASXyxZhCByoP59h5JLL8njtNO2gRYvgi5NJnWWzUYaiq9KIEYVpkMQLJlBhCuLUYbiZFq29ILJADrp6w/h739XAAIqBzJwxYw6VWLUZfPI0FJphzbjkqUJmQHLgFBYdgURMUj71qp4/LmtscVWFeRMH3pIknlekEw0ylLX3FMgTmWj7KWCMOPCZDhoBSSRrqt48ahrEvJ+OgKTDSyFczJY6N8j3WW+h0Ai3nMrhB+UYKc0QlMvSGb0A/KYc9Sdwuujx8Fx8th44w1h2mUkSSXFUVMEPocwacachfXYcafHcOYPgJ/86CggmAbdJFqrJvOo7PmItUyq8cXPEdtc0friBtRNr+R3CClibfXFG+M6xNjr26c+JcZeqvuxQgPuFcpba0TQ1ueQPPT4j7DLrusDvg3bKMKraJg2vRNbbHdqlxON8K0564vo+KGlgmEZXY4IGlLafAFXEPP72N/3xi47MpvOR+grUe98vYOqV4JjkQkUqBBKz28qqFl2qUaSFGRhAtsehjHjLOyxz5OinZRRbBl1rCplJCGPOaUR8iLpXJ+NgqSiy7KxfEoXntmFAxMe5i86AdD+DVMvCbA/9JugUQQ9aZNASjhPFmfZtKRNEV5S8pPFKx493DfSsj8r26WhlG1xPAv27BDzuJC+T6PbIZmogdIylkzLbNc9u1UfkG0eas5Lnuvo0dOx215bIayVZUTFPYQoMd/juKgBUdSAM898VlBNV165DwyDHOOlSCL6BaWVUo8yXbrXwsIypBdh0UuXZsQh9ZP58xH8qIbYaMCitkbMnteEJ59YgF/84i2l76Xlbgji6g9WKPJW4M1rRNCyLfL4s2dg991HQA9yMDRXoXQ8B5f95m5cetm9oqZACKDYkWRgB8l0OgzdRkwvHZK+Ew/E+PI8TIbK2NcPRv8+rbDdSKB8NW8pcnkT1UoFDo2JUnCBekbpWUryq8pSJhFYYQGJsw7O+elD+NPtCk7H6xAQSKoSqfYTnr8NaVUJbu8DQauCJyuf+V4uwd12JsjgEOTrJgMhrTp9WO4Q+f2WwZHS8kHLnSIlFjCwxIPno4KWmxIDNx2RsemUBjSBF8sGLUtkX/nK8vdxQ6B0TFf3WXaFZZZzW1sb6urq1NhMjqFKK1q4wHoeQVyHiRNn4tpr5uH22w5CjFbE0VJxmidQQ7rZApTpvi5BRiSscjSpsijfylm2LoqTCncemzEivRktc4uYNasPzj3vcYwfD3FGTBLsBuClFYi7FXrrGhG0jobk5dcuwbbbDEHsWwiqCWwqHJouIrsO225/MN4eEyKMcwJY16TMy2h6OiyTFheKB0pwBF+2pSMOYwzoD4x76/twnCmIOb+1fcRBBWahEQklKmBLyavKsrSpJIGo4HsseznhMev6YObcRmyx6ZNCJ5P9IqarQYYnUu9NcRjp2u5JJ2SmTQNWflL5B3E2e/ppeVz7mz3hVccIgD+s1JCYan5M9I+K9OzMnFINOVcVG0r6y3aXx2oY1q3VLJkxLZHVn/OMmp7zuclIeawafWzyyFyZXWN2e+Vjq6q07notG7QSqLaNWqkEN5eDX/Nh5/OIfR+604A4LOKsH72AX/1me4RBBY5rpd5KFDP3YUhlwKNNWjERQiXXE0jFQ4ipnIvDmsA+pdLiMcYtoOIXMHEK0NYxDMcc8ze0tytmD40oltPAWqEg/KxvXmOCdvyk67DeegUkAWVZ2Nbh8osRmgnKlTwG9zta+QvEimEi7n3SCNLFdIrWE6SN0eha9Z4cFFwGnofhw4CXXzkdxdx0BOVpMFEReRrddMU+hMEasUnTFbSxdCslCMNEkFUdVJtwNsHvfjcVF5w/BbZtoFTheCQ7X6qFrZh/GaWu+9wpZ9+MLiY/SIJ6ICSCH5/TjEsu2AbltjdRJEDfsoRwrps2YiKFul4ZN1gFn/rsnkCJdNvo0p9S9EIVtNnojMGutJyV2z3LawW/VEHLfyX6SJWtnxS0nOHarHt5NVQbFw3kRBhE+bq+uOHGt/Ctb22JYj8dQWcbAt+EY+dhCFilDE1rU0Ermb1nxaBAFtRC5vONvKooZagqxUSiN2LuIgOz5xfx5JNzcdVVU+nMwuVwTxzj+M8aaJ/nz68RQZszkIyf/HsMGaLDiGxR5ed5joT2GkEGbj1aZpWx8YhTJSpSIg/cHP1lfAG+94QSum49aiRAS9Ypi/bQlpsCTzx+EpqbpkKL5rHFqMSRUgkouhJkHFaZB8qvVNbwvh9Bd5qQGINR9dbB4CG3IZSGRxERWV9Z+dilI8U39xRz6+6jdXWC0+Yaw/6cs9bBueeNQJ0zHX6J6CG6UWkIaiQVNKpiVuapysxKyPw6ddm4KXGxqzJfybymuV7z09KW5wkzDULl0JDBFbMurSzYNNDVd0+7zrLJLF8eZ8s7LYcdB0GlIiWx67rSPNNJkk0S/Gf0JGy8yQjUNRTRWZopfQjHbkalpM6pzLS6md4/ihLIRpFtLmpT4siLqh4RnwE3FqMCmAVUqo2Y+p4mtqXnXfAAXh2lnOUdB7vXaquW9L58wK8RQevqSMa+czPWXTcPPdJEqU8WThLAoKesFqG9fRGefvo1nPiNv0rjh5Iw0gAmH1YGtnxgJrwq/4NZjKoNLJGZQcuoywHrDgUe//thaGpohcOzolhVqFusgklOUWoBd41CCErnUq5DNXCQWM147rlWnH7yOHRUUrhclgwziKCk1QwM0v1Il5GoSct7drv33A145PGjoSVjYROBVOmEmaemMH9PnQJw6ooPrID/hEYyiLnjkDJEdBP/UXhc1WxS5bMq+dPMyeBNK4Ns/CPZNtt0tET9fo5eUpjlR4+b1JdmRs3V18vsNhJfD/VatIhdewONffqnHfAS7PoCwg7qyGgw63IIy0ugUxNXPovXn3bAe+j6iI2n9BcsUBxBc9htLmDh/AZMn5nH3PkD8I0T75cjDocIoeBbV+9rtV/Aqvj6pobkP29cg8037yezS3YKif7Vkgi+GDeVYOfb0Nq6CPfd8xzO/8m7iGps6lMmhmcoDR4XeJcAmyLOq2hMSfVcujrEQ3bsmJOx7gZL0LFkPPIWB/pKQE5lm6x0VAtIE5VElnw5GSWQvlcqDcEeuz2ESVPU+KfrxCdzRZ4hGWYK7Zy9VJNquXkVaXyJiWIuxKTpR8DUx6BPoQlRJ1lKStEsiXtqRCkctbzS8lWVyZw/cc5MsSWVkWnorCqHUI1+0rNiJs3KP++ZRTMPWmlYyYap8JbLNqE+uBp0y0GV51mXXFxdROoc10Xb0qVo7NskG0tMORvLRKm9HcVCE7yaOtvK5iyKHarr3oXQ6vH9mF0FZmrWKSkhq4ZK4GDmjDw62tfF44+14le/fUnok4mOG6IIq61rnN2dNSJoHRPJK6OvxaabNIvgGWFttOSQh2XQzqMVptOCxa3vob7YDzfd+DguOne+CEQwRqQS7oqQtL0sMqSqaeHYFnxP+ewwcNno/NNtG+FrR2yKqDpLzrjECCsROFVeUqVBYp5dUDakrJwq16MqDHMoJk3uh6/s8oCQCbhfdH0+idcSb4rgkAk6CligB+xSBR63phwsvYzHn9kJO2wfwwqrMOmXkyF/DE/MqQR6KLuIarSpbjGzpMpuytqTBtA9ztEatxnFOdZ5Tk1XlVQTDFrhGKvZtfRuEi0tv7Og7Z5rf9TmLeWrZSGgT5Kt9FbFL9d1EXhVybLSWE679BRZ5obq1UoC0iCiSnWp07m5dJH5/Tji4rOK4NdqsPNsasWCRmvrsDHtPRu6tg322etWKYtTftIXwpR6jQhaZtpXX7seI0cOgV9tgyOMEEPOR0EYw61jWp2I1vnjUMxRU6kZN934Ii6+tFVGAiWuYyVwT8kKiVQmmUx0m2WTJQ0q8mtVVVlXAE44rh4XXbw/mvosQlSbD4OKuaGpNIdNEsU5unDkzEzVB/I5CZss1UxYzgb4wQ8fxV13Kd8gaj3I5xM2GBNGofBaKqC4FRCBxBczeVoBpJdNJNcRRwJ/uuVYaPFEwF8CJ6pT38UoIaJyI6iawh5MoHSaRPjMkfvD705TbE234HkuCoVmJDHdFJSfb0LEF0dmfgUGlf8jD6arIwoqYl/ZM2hVt7mbyqcgUj02go+K3g9V1+gWG+jS5JJKITXlFopd2hVPq4LuX6924cj3YPGoECqnwwj1mPDOYnjeMIx9K8FPzn4eHkXxYLTECBi0q/21RgStbSC5/28X4IADtoZJq8qgLMRrkw2N9yUtvOocOM4MhJUpCL35cOwCPH8Afn/Lqzjv4kWSiSTbpqUd0Q8pDEGNZojxdV3UajWJF5bInIHmc8CGG1Hl/jAMHuwhZ7QhCUowTWqVlBAEdNlrEGEzy7bgVUtyBuauD7uIGTP7YotNnhR5Tx7J2L2kpbljuxIgtmEgiEjWzoI2ZdWo9CZXxgxfYA8mAf7xxP4YuVUbbH0eHJa7ZN/T2Z6ueKmlJDWHLceEZrmoVUlbM2HaFiIaOaMO70zwcMP176D/ACU2PqAPsPGIBhQLGgb0b0JjPRtXgcJQB1XoLMMl00pe6yoZVMPr0wRrFiMfHAWpHkGqcZWV8ykoRIFXslFV2g2XXkI3eEOwxszeYSx0uwjUl9Ixf4GNKBmBE46/G/Pm8lbSQUI7LkJ1lXNnP2yHWCOCdsgAa+n1vzu38cCDtoWusXtKfV2yfDw5JzkODWCmYsm819Cn0QNiLtYG1MKB+PNfJ+KMsybLQ+V4RBQD4xhNbj1KtQoiGS3Q7lKsy4WTadENIPEE2cTSjSCbq361EY4/bkvk7OlI/LlwYg9GwUFQrUAzbJgMIpFmiRGHHipRANPaHLf8fj4uuHC8uBKIKTUMGNRMjsgi6m5qRynCSjWPJGdKd5pQDEFX68D2OwGPP3U4NG08DL+MvGGg0unDcXLCRtK4u4UVeH4E1+4Ln06BJoW6Y7j5/njlxbk4+rB3ZR1tMBI49uvA0LUcWIaHpkagua+LoUMGyxy1c3EH6vr2ReyLoI6iLnaNitQJXJUJGTzy44Kz59Jd9iSfWbVklEj6B6tGH0sXNeVe5iybHgNUsFMSJ0It0BBredQ3rYs3x85BuTwIo14t46KLX5Eb7IXSL/jCxMoX5kJWZs2x1hD73+ecfdLOPzzreCxdMhVNTY4A5sWbRhJSGwxrNsKOtxFHLTC1Cqq1AIXGofCTtfHAQ5PxnVPHiCkxMxa1eVlCiqhMqmvEwHAptuYzI1GuRJWzDFwxKNeBgw8Crrn6EAzq14GkOhdJ1AGnYCBk5o6LUqIpMnwVZp2LaoUQva2w/vq3orOd0Mk6BIhQDWuwbR1xxM1H3TkFe5fDZdowU8AMddLlGV71kc67OIef/N8eSPzJiP2lKNgNYrkRViqi3UTKIOPc93iWJBPJQqWiob2tATtu+y8EZeCmPx6LzXdwoJmz0a9fAZbRAdNsA+JO6Rew1WpYjfA6mbV5Vk4QCykg7ZxLEy1rry2L9/1kkbllM66StVEIJ6XakSGf1BlaASlSTq9sEursnvkfxTwzu02Ik3qMen06wmgQdGMj7LvPHQJZ5G9/H2l6xfsM+vNX5hr9LL97jQja9Yf3vWP//bc+8eprzoeGRfCDJciZ6cyPRDy9A1EwFYY1D17pXcTJUuQaCqi1e4DRDMNcF6+MascRhz8Fv6ZOkrLkqOAoWHubEghC6TNpQ5ES4CXHpeNavsHSefYF7r9vZ+y9ZxMcewHCoBO1SieKdU0IK1WE9OtxWHyHCDQHutWMUa/6OOyA16WalaUv2GVVl2d5qov0kHanhIomIau80fmPacdSut9880gcd2x/xMEkaBQQ54jEyMHzFI1QhOP8MnTLgOclcJ2huPnaV/DzK2I89NgOGLHZWjDdAEvbW+GYBZiWB9teCNcpw690iMSNkTQBEUUC1Iw2znSWu+a12Vn2o0rkDyuHP7i0u0zRMkE8kjd6kPJVJldIrG4fYHXmp48RNAcV30Jbp4VZszmLXQcv/Gsufn7ZKNl02YRKYrBr1e13+VkibCX87BoRtOuu0+e364/od+ZTT/0ZYTAbtdpiFBxKdyYIah7sIrPDe1i8+E00NXbCr82DbbA5wweeQ7Wag+0OR8vsPLba5m7p5jJI6DcryY1Zr6rSKZWM2YxhOUo7xjBWEqdc3GFYluZVsQgcfwLws0uPQ85YDMtqR2fHXBQLrsh1shILKjUYrg6PWdfeFP9z6pO4/z4ZD6PEjM91JwAmVf6p7mh3vcx1y6Dlz5H4T7kWjmooG0q7zFv+tDG+evhQAYKU5LOboNs5BKWSOOFZDkt+fqUCEA3ACce8it9eewj6r+2hs9YK02jAq69OwY/OmoN/v3IKNH0yongmioUY1VIZZlQnxAxmMhW0PcAgnIzKrtMNOPng2v60Qcvgy3ZHFrHZJtBzM+j+vK4FL2Mgmq85aF0aYe7CEOXqANjWVthjr2vkclgWw4ivR4QzVkLs9fpXrhFBW8zhuJqHe759yg644YbzYDoRau3t0jxST2cRUF9G+8LRMN0WmHortLACk1BEIbXnASePMGzAe/M0fPeMZ/Dv0Yo0IC8BJKiQVXQ6iqCrOSotGyMxpQUKuRzK1aqMihibfRqBh+/9f+x9BbxWVdb+c/KN20lcOiQEVCwMsANFQemSRsTGTrBQbAWUUGzFGgVbZ6wZRx1bbOmOy+Xmmyf+Pmuf93LH+MRvnG+cPxx//C5y3zix195rr/XECejenUH1BTS9GrYeQSruwTSiIurtmTHE01HYob3RbY9HsGoVOzkWUsyLZZsY6CTXO8erIBaYJFdkwdcCZjhH9JcY6fQ1yLaB+xb0wjHHZiNkb0BdrAaRkC2yL3QHCEcpcu5C8wqQStFzR2QfkJVH8gRVDFvi0oufxP0LgHMv2B1Dhu+GshbVSCaXIRKi/UgUTjyp2jGiApHBOCtlC5GakTz1l9QgdyRoOTNyUmD6q7DECr0V9H8FJKKE5IQ4ICAK9Sw42XmIIOXlYPnqclTVsXLeCbff9AGee34D4rKPFXRYzg+gsoxt5/860H7PN+4UQRsOo1c6hbeo88Rq7quvLkRBbh50PwmdKAqjBunUanj6KiS8z2FgE7K5eibYW/1BY4bjjRq9eghuqBiw2uOa6a/h5lvXyZ6Si5jErix/CiIp/pS+2mnKH02DI71RpmRUI3RATe4cC7j00lycM+U4pJwVgF8rbCJDvH9S0G0ftfEkQtEyrFiVh332fQVxssjkCxXZXI3CwGxKqqNqPy0PNxO8gmYiuol4rpQI27BNc+XVOZg0+SCEjK1IJ7cIKD9euw2RbFbAWX3LhWEQ/sf7RJsOMl0KYerd0az5XNCFknEz46a9cdQxTdC8rBqut07WeFOgm6pym+n3KmQSswmqMQaKIfUWJcHqGCDGGlab65n69Wgm1TxXyhlUegz2snQyyIgaBPYnsqoLHHN70Ysf42gRbCjXsGY9e+PFWLHCxtjRb8iWR534UBQAACAASURBVNOzkPZSjwDpEb9nwP0en7WTBG24dTKZWM5RzD0lF74vvngR7VqVwHQ3Afxj1SIe/wKO8QlMa6MUZrJDOdDcEPxEWpHSfQ+OZ8DOa4qaKhuffBbD8X3fk+fAIqllKcaOWmOJ33XlPZnVmBhXL+MOBQ92II9BTeLOuwMzZ/ZD1z04mlbA8OuguVyxssS+hLDDmng+3vvQRf8Bb4m+lRgdI0v2v4JUCqxtJasXuUBVQ85UUAMf9QD3HFS2s4Bnnj4cvfaJw9bWSEuJ1XHpswauBpxrCEYRcIWnwdFaY95Da3DuhV+J81xG6H3hw/2xW/ut6LibgVR8PUK0/uC6z2q8WSdEDM2PitWHm+YEQoaNIuyriSYjSxPMNNKyUaCOBuiSALWlVlAlXaMm1Qy6KgMZ5YQhhINwFlzp2YVgWFlii+JpKVRUO/h+LfvSzWHrbTFi2H1Yu4r3JYIE22BI0say6vcItN/zM3aKoM0ksaw7yAoU7P0+ev8ZdO2QD8PfAoRjiFW+Dzv7UzjOSiVU4WhqL5oiA4ejS0MyFpMBbNhMdQuxqbIFzjhzIf72Fuqry+FIHmriNWoQZUAZwmhT666ps2SVlqCT9YJqgJxQaOdxXVOMHrkP8gpq4dZsEOUJinhzL5tGGJ5ehrlz38Fll26VVJz7aiOUDddLwBV9muCgeJUErqpMbVeb3N4dle2wCTQvA775uC+ixvfb5TIsXTSb+DGi8KBH4CQNmHYBtsVboknbx8W8KhNvxIpQV/m+e49AyxbVaN7MR1GhJ3Q54pp9osIsTgQs2IVhhwvUvl0hRqAJAYH1+EBOVVzfA0yw/FR7V0VICETRpcYVtHaEeCBTRJB5BGkw0VQxRYYnxpvtNWYcZFZ9/u161CZL4PqtsejpLzDvrq9lMqRx9Q+CrtM9JP4wFeOGQb/TBG0oZK5NppyyhnBvBu/TT1yFE47dD767Hpb9HepqF8Mk+MAuhBd3hb4mVo2WKWAMVncpRkaCu2ZnIe5aCEdb4/4F7+Ccs9dJ4NXUBfFSj6JSq55Opz1S/FwlZs5DD9myGjCCuVDyT8f2wKzZB2C/A0vhxtbA92ug2T5i6SRsYof9Fph2xSu4axZV8RW5gZOB6sh6MCxTpba8wKC9qHyCtg9q5UWmerpUa3xwwe445vBiRPRK6DptKmMIRUPSx47VxRGlOmKciKHmuP6WP+PG22KqEMf3U7Q9QSkZTwAl8+Yfh5atKlFcXI3GJUSO0e7Tgp+IiVMe8d+xWBLRSLasviJV6iuBgIygHlNn4pXlpwJUSpFJ/czcP8UYEmyxqBdkrnE7iIMbeskcQmHpzVN90XFtLFtWjaRbjJjTGGs32Bg94lkxWyClz3OjSPp1Gcf433OR/F0+a6cJWgCPQsNQITqzf0oYYrAdnHnbREw6rT/c6rdhWH9Bqu4b2JRCNbgPcuHpCpPKIWNR9YLJXDopBlIh6iITiug1w6ZNebjm2kVY+KRqBXEMSTbMuywQXgX2FwtKhwbVGX888kxsaUvYVHaQii8waRJw+WVDEY3WwHE3wtOrkfaokZQPL70bFj62BBect1QUNGpiGVZSCElOCgLAIKFfNrwB31U9boVPUvteFqyYonK/v2bleNj4EuGCGBI15TBtQ9Q8bCsLaSp1hHfDex+4OLL386CVkKhQBft0FuGUcLorTnVz5x2JFi3jKGuSQJNi0gCrBMZp6ZwIqUoZRaq6CiZrB3JaQVGpfnL550lGVZq3I63rJ6DM/rdeIUTJ+6h3E6jiyiRGRYqU48MM5WLN2krU1UZQvi0LntUBo8c8hA1rVU2C1qUOrLFA4j+itLgjUb0zBe0YaFhQnz0q8zlVF9KAKZN6Yfo1/ZBKLkR2XjlQw1WIUisOtAjLKikkWYXRssTfVLinwjAh31aDTTyukYe6RATvvLcBkyZ+io3cLovmE4EOBK0H1iP8zGBQRS0LSdo/IiSoIRcpSUm59+Y4ZVDNn38A+p7YCq77PbKz4kLY1qhx5DfCZ1+mMXbcW1izWlWzNV1DgmB4KXwFnnxSlAr2toHES8bgyw5UYpie33HbgRg/phB1sQ8VlFHA99S6shG2S/DdNzb2O/B1KYQxJaCsEudA24jC000kqF0s+uNJ0dB67JGBaFpagezQRnRsnw07nIQfq4bG60x5MNgPNmKim6VI9BnYYUOIYybd5fPI7M8D94SgyCXbkMzel4R8+aTAnoXgF/a3xWghHxVbI1i/sQ4Jx0c40hYz5/xdefMomw9YRnRrwo0V70jw/KdeszMF7R62bX6aEgNjYoVtJJLsXQbGzA4wfkwZbpx+JJLJT1BQGIUf2yYtEG5wWbiQZjyiASk+Cduy4Kcoa0IMs4uYk4JmmvD0EiRirbFw4ae4+IKvpOLKiYGrr1p5SbxmMGx360vRXY8JblC84V/ZLmHQssq7z14MqsPRuUMW4K2HbdUpZQijMSqri7Ho6RW46ooPxA1dJwTTJ8Ug0BzmBWcWqcAbMEOsJzSYV0XBSDKWvv68N5o13yS6wo5HqCStSXIQtXbH2PFP4MnFQNIlOYGTFsRxPu0QA8ZPMdhbAjwSz12xmpxx3YHYb6885GdvQV5ODE0bRwCiowTKlYbD/S7J59K6UqmuHBkQBrX0MpMdX8FiWL2crGoZqaDNkAPI6eXZKAqhUtCgw2EWqmsiWLqUe+Ii+HoE77y7Epdd/oXUFjg/JdM6LDvSLZWqW/KfCsgd+d6dKWjrh67F4oSo15NdY8BJBcGjAy2bAm+9PRn5BcvgplcibJF/ywGQEooYETTcgzo+7ToMhLQc2edqJpFQ9KFxEM7OQW2NCzvSGJWV2bj++lfw8ENALKZUMTL1IcNky4L4V56apbZkVC0ka5/VTs78lD5xHUQN7h2Bfv1MXHv9KYjmrwa0TSLJWleXh6h5CM6f8igeuH8V0ztxTuBWwNfi9UCM7XzgoBjLzw/uigJhAJMnsBjWF2nnM0SidGU3EYrsjVuu/gBXXbcajgXE3SBNaYDIiuTQnJmlc8rsWPBSSZkeaBN6+qQ9cVKfLsiKbkRhcS2KSx2k3W3UbVd97foKN4Mys8qqdFig1GIdqozHVEFKpdLb0+of9XQlyFUlmioaqZSJ2tpcrFnnIJHOR8opRU1VAYYMe1CkbPlMFOBTnw6k/pDFp4bBvFMFrW3bnwN6V/IxJV2tFynjvk1VQtlaZGr67PO90KtnKdKxVbA0imIz1NKyx+MSw8WVD9pN29A87pVIKIgJdtin1i6Dz7SRdrNghdthxYoo5tz9BuYvqBTwP8EVsbiSRyX4QYAQXEGkOORJauqLd6sJW8pTLL4oJUhqNV82rRATTj0KYascmp+DdatKsE/3+bJaEujvBBDGcFR/1fOd3VzHayWTQwYoFFTReb2mYSLlKkd5Cnks+Ww4Shp/D/ibYKIx/vZ2NU7u+zUIEKoRWCL/0M6Dab6DcASIU7yRt4Y2Gy5VDZX3EYUjwgYwqH8bjBjZC9HcNfC0FWjZOgt5ubqYdGe2CmpnyxNUcjzbBdl/tJcNUE8CfshQ74Trq/ax24kJVB7RUV6exNr1LpLpYpjh1qipLUaf3vNV3UFEBpR4X9qJ/VfEw3/FSe5IyrCDr5luWaFLuMqahiWFpAzA3tBC8IWtowSsWVG9+KL2OOfcfWFZq5CoXitcW9gRxCoqEM2nS3kMnm7AtiNwk4FloqTQbF5yCneQTPsIFTVDXSWniAIk3CLcPXcx7ri9DnEWjwJIIgk+at9FZfwwkslapQ7IoJZeKO0xggISKb1B8eiGa7tgzKhhmHnHIlw7/X1JvzkYIznhl2M1id4/c19InG1vmsgLzBE+oD+XBqxnGs5rv/HGfTB+fDEMfyv8RBu0aPk4YmlFxs/YiukGSePc3MbFz0gjYJ/eriymWQC5BnfPnYCrr5yPVSuEvIS2rYFLpvZBu/YGYsnlaNrUQJN8GyErjTQr9JorgAxint1kCgY391TWEGnTAC0iyopEQKm+LPWPfYfkCQuarrw8WS0W8rwZwbp11di4uRZ6qBAptzFS6U4YP342Vi5XwVq/a0CoORBfu4Pj6D/6sp0taA8B9DfVLo7CXxwIjriPSyFD2gYpZEdMpOIOCE8+sCcwe9ZxaNUKSNWuhZ+qRTQ7rCRbQkxpPakCU4/E4lLFhTJNYEWwlNkWEnXVsLPImMlCPBlGONIcFVtDeOdvazBv/l/x9luq3cm3i3wqxyRBIJlVTfadRFGpQcY2jHjQaEmEqZTxAyKJFdvamAp8K2QglRAKwQ4fkZD5RDLtDOQKx0xj/ZpTEDYrsOxrF4cd/hJq1CXK/pqFN9dlFZ1RzhN2EDbC4iAoxXkDeGjhADQqy8OypTU47dQnRKhOEmELGDA4GxMn9gO8dcgyNqFJqYUmTQsBxJBKVsE0XNHe4r6fQUune16vyoxcAa1oTBHY0/V9EZUPhfKExB4nBNTOEp/f5cs3w/UoXJcHF3lIphpjwqkPYcVKsiBtpFKq0ZyVExlTV1Nz/w7frP/wC3/Tg/0Pn+vv9PUKqk5eLEEL2zVSfFi0L0yrHmDENpFIpWCxd/8DyP/mW8swcfwhSNetgJGqQYhNeoqw+jFp9hssQFGTiG0Pm/Q2rhZp0WKSxo6fhsvKrRuB5xvQLR1WOBspLxcbN7p46skPcMft21CxTRWEeGokD7G1wrGb8eNSHRYFmOARChwcpRBOPEUm0AmsFezhDh97acDHlkW7kBiuv6YNTj/1WMRqPHTuOgc1aYj7AVdMWf3ZKqJTgeuL4gbLQ9wxsI025bzO6N23E6prq5Cd2w2LF3+Bm298VbyJOBkJO+kHnuolF+2Pw3s2QkFeLSorV6FR4zBatMgVJchQyEcqUQ1D04XuSK0OkZuhZ2w6qTIim5MTaYq2ImaINHs2KrY62LIlDc/LguNlI5EqwOaNuZh8+kOIJ4EaCo5Lii8tq0fhecN3+C79AV640wWtYVjv+b6/P1MoeWhyBxgAqv4Z0rOQIl0tAB8wsO0fvHuY9R58EHDP7EFoVqghXbMeoVAMWjSFVLoaLG6RUC3EeiGq2yIMHo/XISwbZqJ+uGcNwU/G4HhVsKIWqpM0rW4F+K0RryvC0qV1eOvNr/DwIx/h628yvdcgkBnMTH8DCLPEbprrXQiaZSLFHoxYEriIZme/HKuq+bn0+BeHnVK/spAdTUvh9c03x6FL16Y4+7xrsOABYMoFp+ClRc/gu29rpLLN4rtMFlxwWQ8wgNIS4Kk/jUVdYiM0Mwfv/G0Tpl75piT2pP+lUnG57VIr9tUe+uIL2+Oww7vDDhFFthm5+WkYWi0alWZL3zfMTbMP1NXWCgglQh1kQxOlkGiIME5mGGls2LwNGzeSpVSIkN0UsTpOkAX48otKXHDey3J+YrtC9Fk0RIbXergo+wPE4W86hZ0uaAEMAiCyIZrOPixhOLwNKalhZFlRJJijipS58owRsDsVKNgq8llhLcWZZx6AZi1iSKRXwCVOmCbPhMfptohfO+laQVJlhbNEkFxzmTqTmUMSgAKuJ2J1CBcWoXxrDUytAJFoMWJ1SRQU0NHcx6ZNNVi9sgLvvvctnl2UxFdfK8sQBi2zY+HyUlguZCPB6hRzVyk0qV8YOga7Lp7Y0RFhWcbYtOPeK7xf1rMN4OMvJyOnMB/Nm0yX05921QA0Ks3Da39+Fc8+s0YmEVHnCLjFjzx2HKJRHQV5bfDMn97D3bP+gXRaRyLNadA6yLS0d5x0AoZF4IP6Hq66nBTPm7InDj+qM0I2pfy3IBROiM9vNGwgGgnBsjgZqnvHSZdpeiJuoLyiFo7nwqSfp0ZlkWwk4nmorMjCvLtewRuvb5ZpmZkIbxMhqem0txIeOv6ReLI7+px2uqAtLCzMrahgN5OKEqb06Dh6mIqyrmJIn5D7XRZEqPznyQzNG8WU1Qpgf8yOp10TxsjhhyErkkLarRaJGYIJqWxvWSyq6HCSLkyaQLm+zA266YiyIIPczCuCl6yTc5DqJV0GLB+JZEwGqK6RmB5GyG4M3ylB2snH8lXVWPLlaixfVY5vl9XiuRdWSkot9S9OQg71pmykST1SGTQLT7HfMCDqJdEZjDSnf+Otc7BlvY2TTr4Rdgjo2AGYfv2pyApHsHrtNphmGJU1lWjeohRWJIktm6twxSWPY9Vy5Y9ELO8PMl2dU0h9rc7DuBM6zpT9KpFUxBz7nmxF+J2DBpbiqKP2Qps2hYBbA/jkzaWV46CbFm4wn4dJXLgbRnZ2KWIJWoemEMnKw4ZNMTz1xBtY9EyFZCKkYMYTCZnKLDuEhJO87geWxeU7ek/+aK/b6YJWVlgNa3Rda+Z6PqzAHU8gfVL4zYbLkm5AdeNqo8guFqTC7JNmlpRllytS6IcU78bpe2LQsO4oKKpBIvkdPGcrouEIknUJ2HpIYV9F5YSsE0qtcnSSAleHCBEIhE2Z7B1zP6zD9TxRr4jFXVhatnBrXVFxNFGXSIgFZKSgFJXljdC45SxJjWWl/dHBFczWwx/EncR+OzrwIkZkkG6kHqdOFPennKjYH55xQ3/suUd7vPbm6/jiy4+Qn+Pi8MMPQFnTlooorxVg9doq/GnRq3hu8Sq4gRVQUNi6OO5gRsNziEQizeOJ9F2A1kcIDTr9comUUtX73GzV1x4ysAXatWuKsrIimJaLvJwICkuKZKLdXF4B17OwrSqN8q21+OiT7/Dmm2tRQScQJh1MbKSlFVi8ABt84Mgfsq2vdvR+/BFft1MGLQyM03zcwwfCIiTrG2yJSpM98FM1TIq+AS4zY272vKggkAzdgOPFoNkufEdVe2QvHAHOOjuMSZOPQl52Sri68JS1o8/0WauGLooWJtKUq/dCqtqcqKNdO/xkApot7BIBv6eduFD9pKrtkB3jSFWY3kFcktyEiXfed3Bc/29QF/B5CwpzY9sqqqMsggtEIVCvAMxxLhL1EM5fG4g27Kd9K3Wy6LjTNZCptjK7xfhJ3dC0rASNC23BPG+t2IINGyrx+NNLsZb4XW40mLFIlRmwQ8afkkm3/y9/Z6QZdGcGfG0Yd9REmVF6lQMzo2rJ6+EEyX+UnnZwZMQxpfgfFMf4Pum//ugLbdselEqlnvy1a/9v+P3OGbRAth1CDbeuxN5mMMgMSvZJWQ2tN8sSIYoMa0RVbXW2IMRtTiEVRKQ8KOgS/NCnt47Ro4/FwQe2Riq9HOFQJXxvMzyvliUq+C7/2DDtqPQnLZufl1Q+NbKak5lCDWH6uPJ8dGihXMBJIuXHoRtZMIyWuPiyl3DHHEXP46C1bXRKpRCkoGr4iW6VIRNFayCxckcHZSgr+6NkvLa7KfBClrID4j2LTgp6LYUkgsQyhKIMWCETMWbIfCaZdE7e0e8EjP5hM3xR0knuK5pOmQJvwNmVgm+AFc9U06UcwSdRH6XUrdaQJp3RwmNuGncB+NuOn8Mf/5U7a9AiEtWXH330oa1feuF1NUtTpCGoI4u4mWkimdGTEaywBjeg7sjgEYFS/sd024dJY+JAVoaDOhJWxZnrrm2NAw5oiU4duD+rgJOsRJh9Gmgin0odKJIEmI6LyqgbVlI1Bv+NJdkwkOakYSPJVoftw7CKkahrgYN7PYWvlnEFZM9Rlts2ANbrup6Q6jh/RYyz62Z+0l8y6Jj++uDUw/Z0I5m6hMU6AXqKw7VqZ2sOr59TAhUkVXFMAshTVL26ZGIcsJ2g8evf9pNXHKTrONjz7UM1Dcdaug/fTavKuTwnBWGjrYr6BxMhI+slz/Xe8hD/uwPnP+Yf+7+41t/0lp02aIuLc4c3bpr18Dt/W4Qbb5yOm2Y8KysuK5W1sUAVQVKyQH1BJEtYKFEeMcyrZdYP/EwzomrS+gvGkZi7iagbcPD+wMjhPXDkYW1RUBCHgXIYZo0QxKnJxIi1WN6kDAujQEvAdRNw0lRKDAtpOy1cIweu2wh1le3RseNDglSSKrI6DgPwJlkNtm2vTqVSRZlfZIIXQAGAyt8ySmwbu6dS+pHR7EjvRLzuGFaRDYRFQlYTeKcjK11WVt66utqaWwDvtt/y+b/htSyqFdrZdl6Ktg8RVCGOiqAC/NNN/W/44P+ml+60QRukXv5HHz2ALru3xtrVW3Dl1BlY+Ng/ZLXgKik6x8KA0ZGQHJTvCjhzon/0I5H8YN8nmR05nbYtwHmVdCsmCVPpngcBw4aVoVfPTmhUFIIV4iSRQipFrixDIQFfr4KucR+bI0bKJCLotomk68Fxm2HjypY4oMdjiLtEQ+WgpqaGJzf0Bw79wswAjEQiC1Op1GCutDzYN+bfHcfZ/V8txmQhq7FYF4DE9jotFsOG/6aB/998rjt10DZvkbX4oB7tT3jwoZlw/RoJmG++XoZrrroVLz63WoJUqHRyEObIkowPj0sNzaV0ARcq1ztJR7lCBppFAQBCUlwSAAIKoICwgtYwA7l7Z6DP8S1x6BF7ok3bAhSWMNVcj3R6FcKhNFIJFrJ8aTsRkxxPe3BSLfHu6zpGDP8LqoK+Lc9Q1/XzPc+7peGANAyjt+u6Lwa/l30zj3A4fG0ikbjiv3nw7qznvlMHbWlpqG3NtuTSr7/9E4oap2GaKZh6BLqXhc8/WYmrp92E199cjkQABmQAyx6W4ImfTcYIUidgwxf1/+2Mk4AZkxllxAuzcuX6sNlSYfXaBbKygUMPA446thX22quR9CmzwgRsOEgmtyJNKxHLgqW3wsPzv8OU8z5DLIOQUoH4RCKRGPwLg3kKgFuYJqtCl0JoWVZkcCpVu8MAjJ01UP5I171TBy0fRNPSnG/6nnhAh7vmnw0f21BZkUROtEBI2UbUwDtv/wk33bIAb/6FBseBkJlYH+qwzWzE6bYmJZmM74DCLvPGcmvKhU1pN2UwwxmtXoVBzAD0BSwVENLZG87YZvbpbeOQXp1xYM92KGlsITvfgONEcf+cd3Hl1CWgx7UoSaiVlsH4a8/0GACjQqHQUDoKBIBCvr03kHx5Rwbn3Nu7P5ayY1uatCjJLckuaqIlHT0SijCFN3zTNSOhkO8m9XhtdWW8MNds/+YTL+xtN87rdXCvQ6dm5xfnWdGsnLQT99JptzoR02KJZNrXTc2ie7ufTibcNNKxaqPu4BMfPvH8o5F11MhDX8oqLqrwdXKAPFRXVdXU1dXVcHcfCpuWZYdCuhfSCyKhqO9X1iz7/rOF+xywx9RGpc2LfK24KDu3qDCcpaOurk5UNiz2zsmhtn0kUEULlOrNyzFgtx7TX/vx9a/8bNK8Jo0Tg00tmksPYUTykfAoJevBtsMwdQO1dZWIhulUoVdt3Fypt2x7W+6KL/u/XFyS3SMUyssjB1h0qClzQPlcYZWY0HxN4K9O0oHn6bDZ4iNSzmGHIC3qIRSjS6XSiEZysW3bunI7XEnexs59FGRldUsk6z5bvvZBZOWkkB0uQKouiVDYRDKxEY62GimnBuWbYrjj9ofx4AJfKs3c7MrWFbShVLeRFWRPUAWBd22m0llvaasLQEISVJIGDLaPSDQnL9WCaZJgrywsbNpbBCR1Efxm8VYHDjkC6HVIZ6z4LoF7718u/WVl9KUoaQDaAWBN+dcP0zwYHo7VDPNI3/P2B3WWfdxhWPg4ncZSAH//mQ/Rvv54aM0d9z1mOh6MXMswdceDRUtLH0gERAeKpPEGXXVpH7z33p9bNmvSYljKzb7+oSc+lmthkS4RZ/uIZH0rsDpJwXBcr02LUn3MKWMQajJDu2Ei8s687JTKy699kIUGx7Ysk5lCKukgkm0jTntNQ6OwvNupXTNjxIjDsW3bsr6xZOWiu+Z8LjTBeFzhMsXxIekjKxKFEyOtL4la10+OGnFYqF2TA28sbHfdRT++3tjGMf5TT92HpV8AhmkgDldUKGUzZGpIJ31kk09cB++gg4r1k/r3x8atFdHi7HjsT08/j08+V5OxClrACeiWFGsXgr/rCuHB8yjlqiR1dO6F6OaYovcuiRK0ZE2haVMkTz29q/QedvqjsABrzzrn2LJLL5+EZF01snNykKyqQCjM3uly1MWXwQxTPT+N2uoQFj/zKa64YIuAMYiToPEz7zNTXNnKEk4YUMkUpDAB2yLvk360HD+UllF0O1aElfKvE7Q3dRmEGaKtrNiZ7DoQHJTWVAAmkLHwz0F7PtPgf9dDHTgQxk2Xnhrb88C5dozzk+gWK/YP13hBhQbgDgIi1i4fi9Ur3+raqFH7M955b82pY8Z/KW0b7h6EvUiTK+KoVRcMYQ0YMCALt8+8APnF07RZ01E0dNTo8pZt7xfaochCZUQDAgcF3h/CS8eNaYzrpo9AKLtqcEXFpsc7dVos3ksEYVCxkkQB1hO4HXESKpthME+7fHeMHzHig/zml/wEOVZZfq5/SM/bsH6ZOmfulCjc4WQ0vIj95pygA7fc3AZDT+m/Jla98eC8HGvV+RcswNz7FGiH58jz4Dmwv03JWR4cPz8GggiLqsEDFPirARx7LPDgwiMaCor+ux7zH/9z8/OxZ20dPlm79mkUFRlIVJcjKxyCZiQAazMqN76HSP46+H61KNWbWlMka8rw6ivf4r5H3sFf3gzc8X5wpWO7VOlAUWDMlKJVNEoHvFp5cFawIpriI6MYokyguQpIMJLdLlNpUJ0OWk38LP5CPWBRIQ9IAezDputXWiWlk/63TcYTJ8K6dMLYqm49FkTqAle5+kmFK0mDb2ara+3yU/HdVy92bdaiw5kffFQzccTo9yWDSLsmBXEoCC7XxLSREUmW7sCBzXHbXZNQXHSZdvM0FI8cO3JL83YPCddYVih5x/ZhLegpAGPHtscNNw1APLl0n0h29MMxox7Ac4tIDKLDEm1EGeVUFVHBL+J5PnDaxI6YcdU4hEsu+Kf79vKiEe267F36/T573Yq6LWqbo/RLGpiMsyZhKpDOSy/2R6Mm2efX8M6GlAAAIABJREFUpKru7dyi0baLL56L2fcS/KJ0q5Quszrs4BEK2rPhtwYTktLKUogdOjDSjeLY44GHnui7K2gzNzEnH59NntSn2w3XnwnfrZTl00vXwvBrgPxqVK5/Cbq1WQIwVhuHbebBpE1kKA9ffVuOF577BNdflwxgQ0HwcljSdydAWFHhwQkAGEyTWa3mvymngMyhvGiULWSDapcInWe0/AOTZNk7a1JY4pFJkUOh0PHJZFIqxr/3waC9YMyJW/Y4eHFenEbUpAUKlzapdDUyA5DEih9gj2uXj8OS959s36xN50lffq2fN2T03+V6HZ8hy1yDlqGerDiy0gIY3L85bp99OgpKLtamTkXhpFMGb27V8XGD5tqCPAvmM14bSRm67slKP2ZUc9x460n49qs3GzVt0/ST+xa82/SqK6uQdPktEWjMdtxqda8CaiBXvV497NTiP51tR5ve9E9B+/T9Rx3UYa+2fzvwgDlw42oy9jT6KAV3NfDcJW6a3kjffzMFn3z61/1KNniftj22Q8VV1zyaPWsB++gEuwaeRRKHJFMql0VmWrx+5lqctuXXKlbl9/xPRF1ZdDhOx8NP9tsVtA0GNY3VkytXP4yifPrFkppGR+EYYG6F63wMI7wJsbp1sOme7qt0Nu4qw2XPLYGXbox3/7oWzy36FA88sE3pNQWUMA64f9KSCFpCsq9pmB+RESSrqqIH1hvQysLCf8/40WS8e7jVIy1QUywh02TwbkylUk1+74Dl5zFozx153Ka9Dn2xIEFTK59BS3UrqkOqdE8OT0fY8LBx+Wi889r9rVq07zJm+dqcqYNPeVdgl0Lpk7BlGc+TlFOC1mfQluH2WeeioPR87fqLUTBm/IAtLTo9ZTA9FjdCAXdwlVYrrmS5GjB2dAluvX0Qnnlldihq5U5OplrdNmrE50imNXFnUFAuKkVyL63DS3vyvrwI8NXno7D46Rdyx11ULg1vHosfPqF3KD/rxZP6L5Q0nqqaDqKB7QsfiKJsGloaXXYD3np9iv/qX2+1vvwS/tmnDF99/U2PNbltvqc7Lp+pUoZUoHATttw3FarcGtVbNTRYeYUaHTxxZhLH9Tbw8FMn7grahgO7oMC84fCjml/0xONkjqXhxCjolgWkaRuyCnUVH8OyK2DoCVFUiMeTQoNjAcgSYW9aTtqww8WoqTbwwYcrsfj5r/HIo0CMWVkIqONPUmszi6hohkvlUaXVYkoVlJuDHi/PMfMAVZqs+LLy8gYgegauWHgo6CKNkG8GsO33DN6BA2Ffc9rgTXsc+Xh+km6CIoVK2XLKzDbwuHJNhHQHW1aNwcsv3NeyXZs2w9aWF14/cOSHSGZSQAZfsH/LZINkTQ05uQy3zTofhaXnStCOndC/vKzT03p9m4160FS08D1Rz3DdJCIGcMrIXNxxx3DY2XfrN1+P/bp163XfSX3f7sSag8u1SiIgoP4E2w7eRPIwln7eH888/3y7sy5M1hfxnlnQ+4wtCWPmGec8LxlUmlrTkguQlVQH3+P3WtDdNMaPgjN+fN9vuvZc1JX3e92Hg1fePPPxZrMfhsGVWalKbsfmaA79g5XypOo/KPF4OTLPn38XE3PFOz7+eA2PPtl7V9D+eEBHsuC//fat6NypKXQ/gbBGD5tKmPY2wNqIeOWnSMTWoaAoT5gGTioF0/RRU7MFOQVhAf6npYpLVlAhLKs5YvE8vPvearz7/kq8+MpqfPo5YIVJglcPQwTNg1BUMqr8n0C9n8CMIJ37ueATxJYIwSXrBdBkAghQUNFodEssFmMA3wugfhX53wbymb0ROvOiUZu7HP5AbootEFkl0j8JPlZqQoaDLSvH4IVF97Vo36Zs4PqKRrcMHP2xFO4yaDIGbaBgKkEV8jJBezEKS8+UoB03fuDWst2f1NKUgwwA4tJOE4NepWxJAsPIoXm45aaRbn7jWeY5o5E/YOTA7/v0ebK4Ni5EKXWQrhTcGxFWJ0faBP7+Wq/qzz7+5Ljx59a8k7k3/3hl7FOv/G3FSVdd/4bOZ0SzM7V75hnXisQOP7Y4h7KzbdCoUdY1xw1eciXfv/XryWtn3HJX49vvh8HMgvrSYgaemXMdmqMEZIxgAq4P2B/tcVmIkpX2OOCRp47aFbQ/HrxZWdjD9/HpunXPIC/XQTpRI9xWxGqBrBicqvcAYz10VKGubitywjkq16NwOVn0bCuQRhfNVmgmGj85Jmw7H6ZVgFTMwMYNVVjy2VK8+/4KPPUssHUbRLuII4BbV6pTqDoLRcF5ENoYGEdnTrjeBmO7vytTY660DNigIBWMU0UaiEajXycSifm6rn/oOM5qjq0GOlL8KuZxxCbn/RLMkUF77hWjt3bodX9WmucQlLKJFZM1I9AaZ54c1j2ULz8Fzy56sHn7No1O2lzR5M6BYz+VtpBK9TUY5CdLB4yIs7Skx0NObo7b77wM+U0madefhoIJUwZvbdblcS2RUoLkvBca7TP5MUEwck85dmRHXH7R0LrStlOz+au3Xpi4+rIrFjb/x8fVSPOtfK2ITnM/zZWPYu+0DXHx5LwOqCgvP2n8uVufzdziz14fu2TG7Nc6P7FoDbta9X13fnFmk0ImFmest985Cp989I8jTjut6nW+f/PS8zZdPvWWogWPs4ulCk+y55dJmap9vHqVMakFNTOrBBNa5n8zE5PsaYFHnjxyV9D+3IpTVIAZffvtdeFdc66F5tUBTh1sAfNvBkJrkKj7Cp67AZaVhC56UtxPUksqC4m6OoRzsxGvrhQDK7Z5DBJ2PR3xujQi4TyAyoV1DvTsJvD8YqxaE8eK5RX45rtN+Pt7X+Jvf6cwmerL1qeEGYPooN2jcuOAJseWCVlKAWKrfiSLhjIhkBq8BmVd2ReSBsg0WpjiKkXkAmTZeN7XcXoiAQb1T47RhyI89cYxWzv2vC+alEgIUjgF8Kzfm3JQshBVvnQoXln8WPPmLYtO2LCt7K6h4z6H8DGEicy9cELt9Xl/NUdmjSEnt8QddzBoJ0rQjj9n6Nbm3R7TEmnexyBokRIbFY5gCgyQtzB2eCdcfsno8madLirhNzw0+6SH3vtg1YB7H/o4nOZ5BnoDlHtl2Do8Z6pJmh7mzmiE7HDo4uGTVgtZ/8zhyL308ou2Hn3CDPMryq1yO8wtfCDDFdJMOJ6qa3Db8+2yYXjwoUfbXnUJlvP9q789Z+Mtt91ePPseGHw2XClV0AY0T08J5Gdq4EEpcXsPTUyYpEoATZS7WD3W/EefPErZM+06fnoHmjZG/Morzw5PnDAY6WS5rKxmmNnlBvjuWsQTG+A5W2DplEMhYd0SehxF3KgQKMTtIFipZaRWCEsKRiw90OpCsMw+xce46pAUH4VuRpBM+agoj2Hrthg2bNiG8i1VWLtuMzZtSGPLVmDzZmDTBrVCsxJbU6ukU8V2RFLAqGL30zCba1rYvNCPG60sI1ScSsd9XfMN36cKFco9YF04HN6cSCQ+AvD5r42F0aMRvmDSqPK9DnogKxVUnTiI2HmWQdnA2jOqA+UrB2HRo0+UlbUJH1dR1Xr+Kad/jZoUoZS28F6pZqlKuWqMMlUd2K897rzlHBSXna5dfBoKzr9k1NbGbR/QHGobezQq46HsRFhO9l1f+rsTRnfD5Ml913Tc55oWfMWd1x86Oic/777Tz1qk3kHpm2Cl092AWmky6B2MHwFn9LAjv+hx6J/34mvHD0Wjyy49e02XrndY0psNzNpklZWbrKrmhNZk5QIr11+Am2+6qeCqqxSDavXSs9bfdOudpfPmwiDaiQqc8jZi1lltDyrg9W6kmUj0dBimDVeKFSx7qT047+1xx1upR588mt2lXccv3QGK/N90w2RMPn04bLsatbWrYJqVCGcDieoV0LQtgL8CukZ9KB82yeapBKxISASMud81qL4oxSUVsAxWJWeTkkFLKFtmZcyIcjO4+R7H1RCys8HB6nm2+LpqWpbi2Prs83IkRZFI5+Loo6/FZ1+omTvt0C8nMGhWKWF3AJ/8Hk+aQXvupDFb9jvwvuyktKFUmqf0JoOg5T+6OqKsHi8bgsceWdi0XSvrmJi7+30Dx6j02DRz4TisgCeVBy4F2ajro7N63B73zr4Q2cUTtKnnIP+MKaMqmrR7QHPobVsftEkVtIGBGFfosaO64PxLhi9t1eGS9jyF264/9ND9e3R44/jj5wrAIUYj7vrqtqpei9G17aFnD+CRBaemmrebK1jCs0aj/YkDTny2b5/FnRN0kjAVl5hbeJGRlaYNu78ehgxpGp96/YBIy9Z31sfTiqWnr7v51tmN750LnaAbapxougHfSsJ30vWY80zdOLO9Ze2R30PUFZsXkbSyVuE922s/4MWXDt6VHv/aQDY1+Ny2zJ51BsaP6w/YScSrViJkUVVxM9z4+0glVsHjrBiOIFZbLVaW3F/yUMB8BYPhT+lJsnRMvxldV7xy/hSEkxLfFrEzwnV0E44IHzN1ZGHKlCIXZ22+hkqRmhFCKp2FpcvSOOKINxCjNy4LREZS0kGmczm5uctrqivb/tq17sjvmR5PuXbcph4H35sbF+sRleCZgVq/SnUJ/eGeNomqtWfinrkzmzRrFj7SyN7joUGj3xcOsLhkS8FUeRaI+JtJ3HYKJ/drjQV3n4eskjMkaM86b/S2Rm3vl8DTXFZdGQSsF6gzzmJBNwkMHdzWO+Psk7/Zs8dNpB5i6sXd2w0dduj3Pfa/VWxLUpw8DVV1FzEO3RKh+VCIInzAu2+Nid1x49PN732yuuKSc3HI7p33efjUCR82SxAIw0lQfbHqoQYyPBSLv/qaQ3F0n06vdNnj7mMz93D1irPW3nDjnWUP3KtqFJzW5HtlMgUKwsDhPZvi7rtGI5VegbRPtBxBsaY86hTVKn0HdpKsrhSMiCWovMLc9buC9tcGaiiEDrqHb1g9ZOxNv3YYRo8eiMLibMBZCfhfwE0uB7Ra+F6NMIWcVK0YUKeSSVjiPM4ikuopSlosRSUVqGLM6CvrC1m1AnNkJREa4FID42VljaFGqnjbEpSRZiW6CL5Wgssufwl3z1Ipc6Y8pethtW9F+ndZbRm0514zduMBvRbkJXy1UqmgVcUUV85Pud+F9Dps+P403DPn7iZtdoscBqvToyMmfBwUohT+WvNdhOwsONTB8mpEymbYwFa4f9650PPOlqA9Z4oKWlZhtWCpzKyyohfAvfgPviYTx3Vxho847Kv9D5m5hwTt1D3zp5zeb9shh0wTDWkGLT2YxDZEKJJskVGVxEPYAt56bXzt/bMf7TBrYWz9tZdhYMvWez0xafwndNWFE8joZvbwmVYMawFPPz0GFVvXTxg29hXRHeOxctkZa2fOnFU2a5aqN+hGGGkOIiNwbTSA4QNa467ZAzFr9o0ttm5BKkrvFw26kU0JBMDMhpYvLSYgbfhabi50LZX8VUbIr43pneL3FqweHtLvcvGT8oAHnDb5eEwYexI6714AmOuRrPwEVXVfID8/Bs/fBtvU4aYJPwtLcKl+puLVSvAFPnBcUT2HfBVKp1A4LiSUOTE4JnicustsLQknl0oRukqzfQdeWkPIykY6QTxsFPFEc3TquFDsQTg0TDObcqHCQbLt0IuJVM3x/+oDY9Cedd2IjQf0ejiP/ceguFlfTXVEy1VlBWE9jo0rJ+H+OXMat+6Ye5indXhsyJgPJEWVgRxoSXMsCwKbXtO0Delbgpm3TEBe8+lSiJp8yYSK0jbzVaso46oXtMakfx0YY48a2S49cewxS/bpNXvvzHXWVVzqn3vOdDzyBHvkgdSIWtqDfrYPU/OQnQXMuavP8iX/+GiwWbTh45al2Xd88nnthAVzEaL/nyN5cVAb4vs9XXyHomHg448ux5tvfrr/+NOe/0fme7esu2DtJZffVPbQQ+paWUoi9ompuHy3C/Q9sQxz501Gcellv2mb+pte/K8+8P/m95tm+HDXSfyFwPAMNoADZu8uUUy7ahKO6t0RsNejuvJD6PpmWAYd9FLQhMFDFzhubJT2cabyIn1Gks3EW0pVYzQSDSjkphmSNjtOEKzBfljte6nqqABu6TofVoT2F544wj35xHKcfvqn4shHsw5FRCAdzIAdirZLJqt2jAH0Cw+rd2+Epl85bHOPno/mZoJI1Boze9pg3eVlRgiu2DgZ1113V+NO7XFIXvH+jw8a8X49IkoyiwbfI04FGtD/xCgefeBCaDnTtKnjUHj+FZO2FredI3BEdQTIoiD4CD7ge8eNap8cNfzwJT0On7tv5mOX/KPfU2+9/VH/KRetEdKA7IEzMEHxCPIkNWb79rGHhmHbmu/Hrqr94KFBJxy29Zrpb+QufkZBLun2W6/vJ0VdE6bugOWLJV9ciMWPLyk969KXtmS+t3z9+Wuvvu7msnnzVB/eCXyYmJ5TmpZ928GD2uG228agsHhX0P4b5wbzAMD5O585RbvZluXqK9q6OjB6TDeMGnUkdusYgWmsALR18LyNCJlJKfkrVKLCk6rIJw6Gg0GDJXQsXSqhQtUTihaDN1iZM1VncYTjqszfm9DoiFBZCSsrAlfLRdpviokTnsNzTymjLlf3RFWfMADdMGa5bvrMf+UGMWhnTBuxed+DHs5V/tyq58kGCi9J7VADWVkT+Park7yXX3ymaUlp+ASg6/zhIz+QFZNABaK7XMRhmobsV33EBXw/emQprp/aDwUt52lTz0XhhWeftrWozd1IeJkmcCbaORl68gx4n4YPbZGcPP6EJfseMrs+aJ97vOuE4pKm8w495hX4milStBmGFM8zZBACqgLyqssOQK99y576cOlTI/oceUL1IUc8Z2/dqAKO9VvpmgUkAzghmEYS/frBm3PXhXpxoxv/aQFcuWzS2hkz5pTde18AU3WUFacb4Mk5OQ0Z0Ajz7j4Zs++4u8mGaqQiPkK5ebCal7TWamsLK0+9+CMR1f/xsWul/e0juAM0fCPDlbKiAS1PmuVB35R6vQMH6eh97O445JD2yArHEWaN30vBFeV/etW48A0HhunA9ZR8qthjyDLAEFPFK64EDFJZlZgeB3tagb75KsBD2dmIJ2NwWcYIl2D9+sbo3vkFIe0z7ZSCpMioSpRx/sjE1m++eoIrJk0buWXvAx7KSXusnTJHYL+VXc+g5RTUokjm//zj8etatjDKXCeCN99ajZMH/kk4wDQ+4FXSiDvTrdQtZRc65OQwHrhnMozcW7Xpp6Po7AtOK88ErTKXzsDGfJi8R74rz+KUEW1SE0Yd/cV+h86pT4/n39mox9FHHfPubl0fBHtcQgVUN1PdT0JQ2YL3gJEjWuCaK3pXvPn6Uwf1PLz317t3e1iofXQrVKWvANHER5Qm/zmNadOyvcMPOeiVA3u+clzDm7l21RnrZsyY1XTufPXZnKxF01on2liNncED2mD2zQNRXfktqmqQoqtEblbKphj999/Ebzjw+Ocu2RW0v3mI/uIbmlg21hNAngGyCIAh5YvANgngDECuvkyHu3UFjj6qmQi5tWtfhLxCAyGbAVsLJ7UJlpEUep0IlbL9wUqiy5bQ9vSRASp/JHVmdBtC53MNJm50KDCQcnSkPBum1hWLnqzF2We+IXQ2cUgQrK40Q8cB7g4Ll//4DhB7fO15o8u797g/J4EI1x/4IgPA8/IE0SUHdZgBDB/YDllRbgssfP39BvztH1XSL2WgyP2T2a9eJUDu35D+2Zh9+zDklMzTbj4PxaeefuqWJrvNRa2jK3Yd5XKCxFraTcECPHJ4q/S5pw/4qst+N++ZOe/bpiJ/8lkXbMtvcpNkHAIb9YKCmYAWGEzKUJt2J2+9OQZffvXX8cUFh9yz9973yv3jJEFeTpLXSjCG8IUNWJqLRx7tgrqa2kmjxq6c2/BebVh1+rrrbpjddM496v4rxk6ANM4Yegespsx+S+CKFjDz9r2wd7f9Z3U4YM7PZkW7Vtr/fSBn6SaWeQYaBRIWYoJMRwKC2VVVmJ496kGIXaVUEYHSJsB++wF7dstF5w6NUdY4B83KGiE3LwuW4dKRXBgFdkgXW0f2c1WqzLSaChWqQswKqhdS/rgpR0NOTgnqYsD6tTpqa9qg7wnTBVklSCkfiESyhOTwQ4PkEguhl9OoI+qJEqQ7fDBorz7/lPK9938wJ4ksuBp9djJLUODCHowq7v+lUxKI2nGFJVlA2tbcVki1LFieg00x56NRQ4pw37zR0MK3aHdegpIxEydubtJ+HmoZdER/ZcD3ASc14z4wfESb9LlnDPqu2743dPmnVe/r8f4FVz2PJ59irsvzIb1Oofi5sqsauC+BW15xmr9p8/dfr1nWtPNxxz2oXAplJgpJu843A8pkII37yWcD8MG7Hxw+atyqNxp+58bVZ6y97oZZZXfP/+eg5WsE7sl7EChaqNIdWUuuTFp33nog+p546DMFrab/rND7rqDd4eH6Sy80FwPeCZkUT/yApD8beFQHtDtZISQtU39EXZGrckIVJfnPNLFu3hxo3gJo3CgHeflRFJfkKStJQwUuK8oStK4L1/exas1qbK1IYOtW4L2/q0WLg1pgjcHfJdaDwOVAYS+Qa5VlGIi7aUSzQ+tjseQdloG302m89z/dEgbtRVP6bunRa1EuS2xKRoIXTEwCN5dsSgZLaMBuEUfgQLVhO0lJ4YiVFEWAEoqo+zG4fyHm3DkIuY3mSNCOPnX05sa73S/9XQat+PcG91M0toJsefiIdukpZw9d1rX7NZ0aXsMnfx34zMtvr+83fcY7iFernikruZnHwR0rD2Y5ny2ZgOLiKBbMXYJrrnpdileex4AKXmUEvFcfyIkAX385Ca+88FqLsacvW/PjoL36ulll88inDexVMr+XoA0iL2rYcJ20pM6W5sHWgVtv7oEjj2r+TPMuT+4K2n85Pn/xA+wLbVObwb1pJjgIpRVHdyG7B0+ICCgGHgeMqrzA1AjLoyyrrIAq25Zq8vYAl2w4mAxUK2j7ichfGRz1IHYC3ziw0tAMTwYde8YEf0jl2QPycq3VcNN3JlJ4PZb+bUgpBu3llw4o777/UzkBnz8IWi6ZDU9Srbqmwd25p/x1gglLcmiPyiA2fJc0R56xI8Uk+tUOPKkpZs08Gdkls7S501A8dOzwLY3aPSLesqy6SiEpoCXKJBRMgsOGt3OmTBm2ouseV+/W8FG9+uQRp67bZsw59cxXZdPteZZYY1LjiWfH4hQnVTKvunQjXHB3zLj6S2EAKRUSwhAVhVKeHV9rAHvvCbzy4hXILb3mJ4vfmmVnrJ1x86yyu+9R1WOymVSHIBD6C0TwM5RLmTSIbzOAO249ECf2bfZUQasnBv7ckNu10v5OkWwD3VzgM2HqBEoUdihLABZqNWkgtyC1JuaO1vbKjSy3AgRUI4UDw1KC6fX8yoZkef6dH9EgaDkApSdrUsUvpcAIIm8T9E7hIivsoHfv7vF1Gz9u9u67vy015lcRxnjOWYO37t/z8ShNpRsQVQK1BWKjBK8lrSmH6I/gEKAUV1dlKS1BwH0vJWe4+tArOh0Hhgxqhrl3D4JVdKu2YDpKTh45aHPjdk8gEfDI1RKppGA5IYiexw+V6qHD2zjnXzBq1e5dplLcrv54/rFjenbYs+vb3fe7WRBj3NNGssKIx7kNUe0iLvaZFnMmgDiJyDVmtKgCTSv5vhAw5pQOmDjqkD/vcfC8o348jDauPn/9DTfe3GTm3IZBq16lQCj8Us5C6jkKYzCpNLLunNEDJ5/Q8uni9o8P2BW0v1OA/g8fo9m2+aLv+8emhVZC8DcDiKuokiHgXo5/9dk/4ADmaGM6KTO6QAxUypmJ/GCAquZixjQ62BiK7opCOIiescuElQNZfVyAuEM4GkEinlI+sFyRDWDm7IGvVmxb8fKqVdsemTNnGfuLDaeEX7zEc89F5JxJ/ao6d3/WIjxPobrUwM+cjpCLgpVV0tgARytZSEBr4TaCRXEWhti3TGT+3Qf698vD3XcPR6j0Ln3OzSgZOmTopkZtH5NWkUJEsT3GfrYDnXBQEhZYwBreyj3/4jFrdu84tXXDC3j64UOb9ei575r2nW6S7EcCkedMc2+X5tbEjavMiB/P+yNqkpmbEtx6ScWDjIYcj9tvPx5Ncq3z+57y7E+E9DauumjTtGtmlM5/QH0u8crBxyixXdLzxKWigRYYPU/CDNpDcVSvkmcbdX3ypF1B++8P2uAbrNGmpd/nUE5VjJODQdLg++UB6hpSDDJCiwNPIBn7mQEsaVmGvLX9zQwCiVUZeBF4XI6FLO8hRBc7qXgGqhYyOtUfVrOZhTPICgqBhx88A1275iAv28AnH3+96M23Xp9XXr5tQyKBDTElPCg0oZwc+DNnEt0LzJyBppPH91hX1vo9FDaGOINEovIa5GQBuVEgK0LRdl/2nQUlxQhHsmCbllh3ZoWzEAlnIyuaj5wcC+HoNpiWg4LGjRCvtWC6zfH5J++h/8ntMe3WOUarLJSeNHjshtJ2C5CiJo30ail/6ip6YXB5LOAMHdbKPe/yMes6t5/a8sePuq7yMv/E/tfhzbdUEU8eSj0vTkfUConBmctcm8/ME9keqSwTfSYrIotPvgUbaVBB5s+vnYZtKypOOH7U48//+PvK112x9aprrym8i+nxLwUtW05slxFg45IxBJAZdccN+6HfMR0W5XV7qN+uoP0/C1r5oizbNt9KO87eGQCPyMo0aFVk5M0FaxEUbTIxJgtsfbirwM+MscxPrm6uZ8IyLTj0s83Aktg6sIVopCYEE7joku549aWPseQDIB2kfFydsn9A9PQ/Gdh37+5ov1sb5BUZ8axsO8I1WYPhemnfjcfjXjia7etaldGqSSpMplEs1QVJh+J2KSnqpNIekok4nEQdHKcWabdaeshbt9bJzdiyZRW2VmxEoi6G9evrsGkjJxzgsCOK0PPQg7F02TrfmO4HAAAYiklEQVQsXvQhnngY6NsHuP2WYbh57qNGu3w06ttv4vqSdvOQpHewXDyDlnYpqjLNBYtMmMFDW7nnXzl2fcd2Vwo1r+FRvuaMDXfNf7Tx9TdVKMEB1aqVxivlbiVbMAykWQmTp0R2FidCH76WUlxaUm/9kDR/jDCw7Psr8dzjn+0+9vxFPzGp3rLmysqrrr067+4FKj3mV2W0jxVLVk03rFyzLMj/KMXKQtTtN+2H/n32ej7afu4Ju4L2/zZoM982SNPxeCbixDLTJRQxqOhmluEgp5XULCi+1mtHEf4o9RALrsdKoxJz80iwV6UUGch8r3C9Ax3eAQOAY45rgmP6dEckauKD97bhuCPeVsoYQc0ow+usT6eZgQcpbQDa2q7QEhSSMkUvWUECtQ3unwVTG/gUWbQ6YbWXd8GFGFALRZT9psvb4JjehyIULsTzL32Kyy7/s7yGkw6vfcAAE/PnjcWil+eZdStRMnDA+A3F7e9BwuUMxJNjnqxw3CIEHkhunHJKR3fKJcPX79bxip8E7ZK3+s5etnrt5EFjPkLap2evj7TIKvIMeTPUhlkeQ2Z/4fPe2rBNA0lXTT4mOc9uDN06AG/85Xw88dB3ueMuWvwTGZ+KddNqrrr66uzZ95KtExQP65MmXfDOSgM7eGa8Bk7C1E++dS+cNKDHC0VN7+6zK2j/M0Er3xqJWLPi8fTpmcXTsqh2oVZQ7ulYTBZEVLDXk51boLQgTvTBjpMqDfJ3FnUCDHumzXTo4SYOPrgNDjpwN3Ro2wS5ubWw7BWoja2AYbE0tBtm3rYMN92yBtW1CnfF/iCHjaSBP9oLS2uKjggiAasUIjyflhoMFCXtycGuMoYsWGEbfnKbuo4A3slByf8/dUIZBgw8AYWlbfHaG2/gkUdfxIcfK4H3QKBB7gXT7b798jF7Zn/cfOe9RjMbJcOGjNtYutu9qGPQysb5n7cMUnUWRFNH97xLR6xv3/nynwTtS4/scXJZsxZP73v4c4LBUhMMJ1Cucyw2KHVLEZrLtOck+wnBggFXj8k1OS7F5D2cNQK4fvq5brjJbQ2wldsHWPWmq+OXXXFleC51j4MiF5+badgy2dKVmPto2ScHaZRMxmHgxjs64YijD3mqVas5u6rH/8GYzXx1GTTM0TT04QPk6iNbJUqzhJX6hCxmGtC4FKitAUqL6ZmrArioGGjcGMgrAMqaRdG0WQHy83XssWcnKUTl5+cgltgKJ1WF3AjpZzG4yQTCuZTBqYKvFyAU7YqT+j2K17m4OdlI+GQBBVzRzAojZ6uAHGo5a/B7KuqHwkixsJXpSmkeRB5dA7LZfmUgGsCpEwtwzDHdsFu74mXNy0ravvHGlzh50F+VFGnGzIwrtVo4pZjELfzAQXmY/UOf9tbZ842WIRQNHDhmc5NO96E2I+vfMGiD/X3UZ9Du7p536eD17Tv/ND1eOLtlp6OOO/qrsnbzpeglCY5MhAHPldS7Bm1n1UpTdfAMiFFWYMNAxHIx6/oW2GvPLg92P/TFUT83rqo2XZm6curVFoOWVe9MdVDXbGgUQADQpbOOvv3aIhKpg5ukWXgKZmgruu+1L/Lzus7ba78Fp+5aaf8AURucwu55eVlPjh87uMM1UyfrvleO2vh6xOPrkF/I9a8anlcDS2dV2YHue/C9FCJkXOsJpFPV0E0qPqSQcitFjTCRSAVpt4ZwyEAyVo6oHYKXIEUzhJQbRyg7j5B8bNrUFN06vAhqMacyJc2GzT/JlTMay66k1vFEQsAHgVWRTCIceKIyyPFN53sdGNm/C0468Ri069AYb7z5MAYM6YglX7y+W0luo1FLv9cuGzJ8iUxO0aiOmpgCGQjc0yNohEUZYMTIxrjj1v7IKpytz74UhSNHj9pStvsDmgpazicudIEybi+2q6Dt6J532ZAN7TtNa/5zj7pm7Zn+vofNxHfLVVrPvazrEjjBaG0QtPWIK8WkEsBKYODCz+UK+eLTvZBOJEb3HvyPB37uuyo3XeRNnTZDu3seV1r6FSnBPU7ThKtGfqD0nXhiGebfMw6WuQ3JOH2e/HRVzfpyXSvc+vVn+p1HnDBn/q6g/eMErZzJHnu0Ombr+pULp5zdP//cC06Bh3WoqvoK6fRamX0tk9IkMRi6D4NFEZ8qBnGpNhoRG048BjMaRdXWzcjLz5X8NVmTRigahpusEPV+zcqGRGeYOqM+yuuqEM3ZEy8uTmHUmLcRy+TEsrQE7COusNJP5cFUTuXmNNlyXU8GvBlVsEzioEacYuGEQf3RqlUXvP3yZ3jrLx9j8eJlstouXzMOH3z+bOfWxa0HfbEkNW3SpM9RQ1koKaIFGtBKF0Aq35w7+vYrwv33TYCdfYM26xIUDRs5YnPzrg/rKj3+cdBSsscXmbhRI3dzp1wyaEP7Ttf+bNBu/O7sdVff+qemcxeskS0siQD1KogB+yYD8GqojpjpBUviwU7NDxPEss9Pxd/eff+goWM//TmTMmzbeJ4/7epbMHseEVEkF2hwnJTohInkrEFj8aaYceNI/PWvz4UGDvwqLUSuHTh2gSt24Cb9u19yzBHNe65YuuaegYM62OddMKRVQYmOZO13qK5ciexsDW66CjpX2ghzySRcJwGTgGaXbQ9qHCuBchaq0gll4EXGjPQomAsKgVODQ5aRbcAzmiBR1wnNWi1ALCNSJIEqy09Q1eQemCuDI5BLqYAT8BG0io89sQCjxgxAx7aNsWr1Utw59zH8+TWI9pETDwgBPvD9ivH4fsVrnXNChUO+/9a4ctSYD2FYNmLJlGTesloSF22GkXYSEsxDh5Zh9p0jkV10g3bruSgcMW7Y5lbdHjViATVPExF35S8glV6NCkzAqFPaeeddOmR9uw4/H7SvPHncHasqas4657y/IlnH64kgLQ3ZYJ+csUiSaUolxbatI033uqDGwFcTfrr623Ox+M+vFo0f/+XPYrdjVZf4F154PYQwkHEYkCKhJeg3Bu2gQYWYPfMMFBRd/Zvi8De9+N89eHf2zz+iZ4vOjrPlmoI8b49zppxSe8hRB+7hxb6FbmxDbc0q6FoVIpE00k4lPIcrsS4SrWZWAdzqtLR/7HAEPgXThKzAx6sc7H0vLThjMxpGysuGj2a47Io/4a453Nuq1kPDTNkIGpPCOgo0g4cNBo4+vB2OOqYPvlvq4r4H3sB9879Q7SoWqdLsYwbtqwD3tGLtRHz+9dOdW5R0POWTJd7FQ0a/K+miqvkqMh+RUzb1ob2EtKoGDGiOW2YMRknzmyVoh40ZsrHNngstCdqgeqw0gxnvig/LoB09qq1//iWDN7TpML3s58bSK08PHJBTajx5+LELQU6G60fUfl4KaurIiBHUQ1Q0cpvVVoAINcIx+/bJx1OPXwEtfN4vxo8Tv8o/46ypWHA/gzYKT1pJnBzUnpbz6JD+RZh9+yTkll73m+LwN714Zw+q/8vrP/G4llM2b1w1YtDgHjkDBx5a1Kx1TkGqdrVI2aTTVXCdWileaS5XXgemoQyJyU81NCKFaCDGVDaqqsy2iZTnIe76CEVK4TqlOG3yA3jiCQXmyIALM7hn6SlqQN8BxTjuxP2w976t0aypBie+9GXbLDm2UdOH6okJKc9SaCsis+hIj4igny0ksHzlGCz99tmuTZt2mfjeR6kzh536PpJphkCmDE4hdrWJNHneJjDgpGa4e/YE5JZMlaAdOnrwhtbdH7fpHSTOApTmkaBVK2ImaMeMbovzLx2ysXX7637Wx2jhPcd32adn2ZK99plHP1l4XhheAz6vClpWkxtglzRHVkXFDlJEj5tuPAr79yh7f/8D7+/xS2OiYtP5/tXX3oxZd/FDs6V3rQzSWDJOywQwoH8R7pt1Fj7/4M0u27a51emYZelGjhYKh1Cd2ALPFCidHK6r+6aWSMdra/59loj/lwP8/+fv6tkzu7NhJMdWV6cHnnB8l7p+Jxxd1KVbh1JWdH0/Bt3bgtq69WKQbNpx1MXWIzfHQDIRQ8iIQEcufM+u1/tNpHVkR9ritVdWYMigRbIvzfR22dJg7Pc7CejTuwe6d++OgtLG+ODDzy+q2Bh/ccgpL3zxxILskr59xmwuaTJT1ig60QdLlCJABH1T7t1CSGP16nFYs+rlPZs27nL6G3+vmDB04gdK9kVmGObHynRXhYkjLa9BA1th7qxJyCm5WLt1KgqHDRy8odUej9uqT6vwxhmaDIPWNB1Jy8eOaY8LLhtc3rLttSJW/uPjgVlHFPU+qWv5PvveLpRF3ouMmmRmld1OsOfEQoUDdYNsWpeSbG8B8+adiFatSy4+6JB7Rdj8547KzZf7U6dei3n3AvEU0VV0e6cWdhTpdEyKhwNOKsPMW8fDQrkU4Ty2n9ywXJqmJ+VepARiSVkcOiFUwtBW1kNu/n8e9//fXFvPno07u27dqNUraiYXFcMePvyEZKeOpTl7790WBUU27BAfdCXg14hthsjS+Dmo3ZZCdn4R0gkPGzZW4NFHXsFNN6wS8ANBEWy1jBm5J07sdxB2270U33z74V1fLvlwYXWs5ttp02o3N7yBD9+J3H59J1U0ajPHSLByHKzI9YDngCPKinVIS2LNmjFYueLVPVuWdj7z7feqxg2d+A8ho9fzFEVb8GeCduaZyCk9T4J2+OBBm1p2fcKUoKXYt0BDFTokE7R0ORw3pj0uumzIthZtrin8pYdeveVC/6yzbsTjT1FqVmlwbW/1ZPaymQSUebEQEGEQNcU03gI++vhCfPr590cPGvbMa7/0PfFt1/oXXnQ5SM0j/NK0vADMYUI3lVxqxFZVbOnDB5NfPYMro2XFLIivoSXnIcDDC7vuCtr/1ohu1gyR/NycoSmn5qgVKzGErctQSBHue/SwEIqqFIyFo5AVxXt/j2HjBjVAKNq9116o6dOvd85+vfZ2P/zgHxdvXF7xl4Srbbjrrg82/k/3ZO40RI886Zitu+/7Slj6jxloVaZ3KtWh/9felUdFdZ3x38zADEuAQXEYWY0LAiJtUz1NarUeEyJRNLYiCJooqzsuYFNiCCXGpfWYREjcqo3RRI01ObVWY2JPom1qPakYjTGmGlGjcWHcQJ0Zhpn32u+79w1jiih/9px553hQmI3r/b177/f9FjoEU8XUgYvfTsa3pz5Ij7emzTxw8E5pfvFBOFqp7SEs+8WZUjtPEz0RyMnugVV1cxBhmaNbV40uT+flNsb3e9fgJLoQcRa9MkSiKFDhzS2T4Pug8oWJTXEPV5vv9Tt8d7Lw6J93fpRe/vwFcJK9vMjHWGy3vSTRtgIVkS5ofA2in97QUIMPPj6RkJe39S4Nre97Om8uUivKF2DtBkGuoNoAJ7AQG4uKgaShZQcMze/K59lUI5B9b/YgI+qzDhg6DPjLnkw/aP9fQdvO5w4IDTUN7WIO7d8lMuDHPXtHDvjRIylJLmeLzuPWO8+fu/6JrbHpU5fzVn2z6/YJh+PGdYsFzn37fKowDzAYBNoJ0/KazQlbDG7hVNbGivb+lYi6ATAEOnDlbAEa/r0jLdHSb8aB+pZpeYWfwUnxHjLdhkEriz3MwJKgXV07DxGWMt3ri9E1f1x+Y0zyZr2mBGI2E8914mSROYCbX62ooDcWvFhwKyZxQfi9fpX9u4dUqFCXZY7+u0gAlowsESFKu25NwC9WclNoEFrsdr7FELMrYxiwdl0ZuvdoSxNo773stmr1ucoarHsLrAPmo4MxEG6mRwnKKVX5XZz7KTml/ELUV9KILSJ7nusEBo4FwaoNg/ygfYB56n+Izwis/y3CciflNJkTtuncVFSRDhBy2ZR6QFEdpoSBxnPFOHV0a2p8Qvq0g4dds8aWHpLeUOQaLhnPxPnV9MF0ps3ugdUrKhARPVOANjfPFtN3i06k7flm9QoPSGr5ENGeClE11SV3ohN+zal57V0b6mIGjRzx5KeJKcIJQ/vc3pWfSBaMXvkzMpWnvrSiMKmiuioE06aXXA3rtqLdc7P2nu7mGnXuvGqsfVMc24UfVpvvchsjS3sGixR9GrUEZLIacnOLSe8CRmQF460tj/tB60dk50agthrhxVPGNcWn/RHXbrYFXHtfhTWB4l8kM2s8W4yvj76bEh+XVvrZF665vyypF26MmkJBw8b3QLuq9lcwW6YzaCfkjbfFJG3V8YrVHmj1CiiVikD78kvTW6Jiy4UtfzvXG7/rZh0/dvSlnmnr0SRlzqIQJtKIVMmMEtpGejNiM5G7uotXu+3bUhEbl1CX/pM9ZR2NXPOlcnXhwuVgETyDVqp6qAOnU1nDS9JCjcJC1XRNaEhbdNGFbuUbEj2GojIznwrC1vez/KDt3JT1P3rNUkSUFj1zM9S6CU6F5Gvke0zTzeG1UNWCsWllsp0uxbHD7yc/HNenuP64qyK7qJ6LX16hPKOwzV6HWjo52YlYtaIS5uipErQ5tpikbf8DWlq5yGyNVkJSyEx+tjcWLZzp6Ro7p10Sv/a/57xQoWbmvoYDh91skXoXaGXWjlc9QUmHZKynuBBqBD75+DFcvGgbNyrnm+0dzQbXzflqRfkyrNso0/o0NREJE3glp4QC0T/XLu1e5otKU7ABLoeHQZuVFYSNm0f5QeuHYedGgEBbUpB/M6z7ZtgVainR+ZRAS5YxrcLQW/4h0F4+U4ojh7Yk94pLLfr8K9f8nMLPRWFGiv15UZbFWs4pozPt2ESsrK1EpEUDbbYtLmm77o7GgZBnWnoqF59JP2yQoF00A1HWuR3yD66deu70yk3/7Fmz+G9MlhCrqhTJUYtHunDQ9wMDQzgJkRIA6TOfPjMB/zr8RfrIMceOdTRydtss9cWqOpCelgpeZMFKrj8quRAwmVmIqDUtreZ5JbYS8pirnR6kHW3W6BD8YdNwP2g7N2X9jyYf4RmzJ143R72ta1HCeKUj5oFGedTM27iabQDON5TgXMOulLDIqOIjR1rLJ5ecYN9jXl0la5K9maT8kPNpxyZg+bIKdI8tY2O3iVMnNlri3tZRIYoiMdkoTxHWOnQYZjsbPVAyJRULqp5BnLWyQ9Ae+cec5V+fPDuvsPRP3GfmNgshij60Jl3iOwK9vA4BMtQ5PR3Y9dE8dLW+cl9Skt02Q6164Q2sJJWPVtv6/rO8tMm2Dpj33CtrU1zV9igIDQCeHG5S17/jD5X2o7CTI7BmDSKyMjKvJvfdE0CFHK4NSR0qfaXzG6t/CLT/9TA+c7YIF87vSovoYi368rg6N3f8UV5p+YjHIgTxlRPvaZtLXk/j4lD7ehXCzVN0m9cgatjQEVeS+u3W0+Rnl3/oObGBwwC12rUBKCjqhWXLy2AOnd0hqPZ/OGNSj8TwDf1/sIQBpZ2xvVHBPm1aCsqiNZiq02Wz+6GiKgfmqOr7gvb2pRK1pub3WLkWaJFGf0zt9tkLa/cH7XtciNeKyfIdOFyM6OMAnsiA571dY6iI7b/8I/DgI0DV45HZGdeSUvYGsiewnHHsbawtWLR9JdDqgYYzz6Lh7N7Url0sRV8dV8rH5x/jM61BGkZQHpI2k2lrTCAeMyYMK2p/g0hruW5bLbo9kZlxObn/Xj2t0AQA6l0SYGlLzB0Uap8Ygdzx0ViydD4s0RUdzuud2/OSBz1qPdG7z6ts8sZtH3mxu6tc9amiTcUn6gJRqt5LLw/GqF8Mrrf2WDzgfiPmuTFdXVC5EuQRxQwwCUah0xVnegKtbz3Oayckt8f8GNmTpoyjwUPgeee9x/2gvd/g+39+9wjsWB8VljEqrWlSyT7u0oitZZtnuZvIALTtozQABdj45micOr6/V0hkeL7NZlr4at03wlWRgEfeTqQRVimblixXW1lAP3BgNEpLSxEZs1C3YzOiR2cMvzxs+IeItOhgCAxjZU5woBsORysCjXpOWKCWyuAh8SgsLEQ3a02HoCXn1VuNU5WK+avRfEP4bBFAFMrZkdttykWiraniciE8FGi8AixZ+jQUXUjJgJ9t8ebQ3mt+qPZZ6itL63DwsBAZsFslA5fokIK+yTppjlGkLb7Q5YnwWYpREXeSQDL3cyls8ZqcCjxf/aj/TOsHZedGYPdumDIeS3HalVjojREw6J1i1fAEc2C2x0hV5FboKKDK44J65zJOfnn8ocjo4ClxiX2XN7uMCA63MDWLQsfI/I3sbIxkp6hT4G5xAJ5wmPT9YDQv0x3aiahHBv7Q5jHFQjGGwkHqJo4QI0VQEOxOFUFBQXA6mmE0RqC11YJw86r77iBvXSpwBoddNGm9UQ720rdC0ZM/ZgA8agigGiVobsNkssNhN+HIMTX9pz//a4dFKBpR+3e5amDwZbgCHmK71AAyh9OT0IFAa4COnCUJnuQqKUW8HJTtY6dDNw2XQ0FYcCSfCxz2SwiOuIr/AH20Qqy0XslzAAAAAElFTkSuQmCC;rotation=0;" vertex="1" parent="1">
          <mxGeometry x="39.86" y="400" width="100.14" height="90" as="geometry" />
        </mxCell>
        <mxCell id="G1GQrUk6o97cC7J-lh7t-7" style="edgeStyle=orthogonalEdgeStyle;rounded=0;orthogonalLoop=1;jettySize=auto;html=1;entryX=0.5;entryY=0;entryDx=0;entryDy=0;" edge="1" parent="1" source="G1GQrUk6o97cC7J-lh7t-5" target="G1GQrUk6o97cC7J-lh7t-6">
          <mxGeometry relative="1" as="geometry" />
        </mxCell>
        <mxCell id="G1GQrUk6o97cC7J-lh7t-5" value="" style="shape=image;verticalLabelPosition=bottom;labelBackgroundColor=default;verticalAlign=top;aspect=fixed;imageAspect=0;image=https://sp156.prefeitura.sp.gov.br/portal/++theme++pmsp/img/campanha/portal-atendimento.png;" vertex="1" parent="1">
          <mxGeometry x="30" y="30" width="459.56" height="90" as="geometry" />
        </mxCell>
        <mxCell id="G1GQrUk6o97cC7J-lh7t-8" style="edgeStyle=orthogonalEdgeStyle;rounded=0;orthogonalLoop=1;jettySize=auto;html=1;entryX=0.5;entryY=0;entryDx=0;entryDy=0;" edge="1" parent="1" source="G1GQrUk6o97cC7J-lh7t-6" target="G1GQrUk6o97cC7J-lh7t-4">
          <mxGeometry relative="1" as="geometry" />
        </mxCell>
        <mxCell id="G1GQrUk6o97cC7J-lh7t-6" value="" style="shape=image;verticalLabelPosition=bottom;labelBackgroundColor=default;verticalAlign=top;aspect=fixed;imageAspect=0;image=https://cdn-icons-png.flaticon.com/512/5668/5668307.png;" vertex="1" parent="1">
          <mxGeometry x="40" y="210" width="100" height="100" as="geometry" />
        </mxCell>
        <mxCell id="G1GQrUk6o97cC7J-lh7t-9" value="Dados coletados via scraping e ETL" style="text;strokeColor=none;align=center;fillColor=none;html=1;verticalAlign=middle;whiteSpace=wrap;rounded=0;" vertex="1" parent="1">
          <mxGeometry x="134.5" y="245" width="95.5" height="30" as="geometry" />
        </mxCell>
        <mxCell id="G1GQrUk6o97cC7J-lh7t-10" value="Particionamento HIve" style="text;strokeColor=none;align=center;fillColor=none;html=1;verticalAlign=middle;whiteSpace=wrap;rounded=0;" vertex="1" parent="1">
          <mxGeometry x="30" y="500" width="145.5" height="30" as="geometry" />
        </mxCell>
        <mxCell id="G1GQrUk6o97cC7J-lh7t-21" style="edgeStyle=orthogonalEdgeStyle;rounded=0;orthogonalLoop=1;jettySize=auto;html=1;entryX=0.5;entryY=0;entryDx=0;entryDy=0;" edge="1" parent="1" source="G1GQrUk6o97cC7J-lh7t-12" target="G1GQrUk6o97cC7J-lh7t-13">
          <mxGeometry relative="1" as="geometry" />
        </mxCell>
        <mxCell id="G1GQrUk6o97cC7J-lh7t-12" value="" style="shape=image;verticalLabelPosition=bottom;labelBackgroundColor=default;verticalAlign=top;aspect=fixed;imageAspect=0;image=https://duckdb.org/images/logo-dl/DuckDB_Logo-stacked-dark-mode.png;" vertex="1" parent="1">
          <mxGeometry x="300" y="390" width="118.66" height="90" as="geometry" />
        </mxCell>
        <mxCell id="G1GQrUk6o97cC7J-lh7t-23" style="edgeStyle=orthogonalEdgeStyle;rounded=0;orthogonalLoop=1;jettySize=auto;html=1;entryX=1;entryY=0.5;entryDx=0;entryDy=0;" edge="1" parent="1" source="G1GQrUk6o97cC7J-lh7t-13" target="G1GQrUk6o97cC7J-lh7t-15">
          <mxGeometry relative="1" as="geometry" />
        </mxCell>
        <mxCell id="G1GQrUk6o97cC7J-lh7t-13" value="" style="shape=image;verticalLabelPosition=bottom;labelBackgroundColor=default;verticalAlign=top;aspect=fixed;imageAspect=0;image=https://streamlit.io/images/brand/streamlit-logo-secondary-colormark-darktext.svg;" vertex="1" parent="1">
          <mxGeometry x="540" y="480" width="136.81" height="80" as="geometry" />
        </mxCell>
        <mxCell id="G1GQrUk6o97cC7J-lh7t-24" style="edgeStyle=orthogonalEdgeStyle;rounded=0;orthogonalLoop=1;jettySize=auto;html=1;entryX=0;entryY=0.5;entryDx=0;entryDy=0;" edge="1" parent="1" source="G1GQrUk6o97cC7J-lh7t-15" target="G1GQrUk6o97cC7J-lh7t-13">
          <mxGeometry relative="1" as="geometry" />
        </mxCell>
        <mxCell id="G1GQrUk6o97cC7J-lh7t-25" style="edgeStyle=orthogonalEdgeStyle;rounded=0;orthogonalLoop=1;jettySize=auto;html=1;" edge="1" parent="1" source="G1GQrUk6o97cC7J-lh7t-15">
          <mxGeometry relative="1" as="geometry">
            <mxPoint x="350" y="500" as="targetPoint" />
          </mxGeometry>
        </mxCell>
        <mxCell id="G1GQrUk6o97cC7J-lh7t-15" value="" style="shape=image;verticalLabelPosition=bottom;labelBackgroundColor=default;verticalAlign=top;aspect=fixed;imageAspect=0;image=https://upload.wikimedia.org/wikipedia/commons/thumb/4/4d/OpenAI_Logo.svg/2560px-OpenAI_Logo.svg.png;" vertex="1" parent="1">
          <mxGeometry x="380" y="630" width="184.05" height="50" as="geometry" />
        </mxCell>
        <mxCell id="G1GQrUk6o97cC7J-lh7t-16" style="edgeStyle=orthogonalEdgeStyle;rounded=0;orthogonalLoop=1;jettySize=auto;html=1;entryX=0.93;entryY=0.383;entryDx=0;entryDy=0;entryPerimeter=0;" edge="1" parent="1" source="G1GQrUk6o97cC7J-lh7t-12" target="G1GQrUk6o97cC7J-lh7t-4">
          <mxGeometry relative="1" as="geometry" />
        </mxCell>
        <mxCell id="G1GQrUk6o97cC7J-lh7t-26" value="Dataframe para montagem de grÃ¡ficos&amp;nbsp;" style="text;strokeColor=none;align=center;fillColor=none;html=1;verticalAlign=middle;whiteSpace=wrap;rounded=0;" vertex="1" parent="1">
          <mxGeometry x="510" y="390" width="145.5" height="30" as="geometry" />
        </mxCell>
        <mxCell id="G1GQrUk6o97cC7J-lh7t-27" value="Query montada pelo ChatGPT" style="text;strokeColor=none;align=center;fillColor=none;html=1;verticalAlign=middle;whiteSpace=wrap;rounded=0;" vertex="1" parent="1">
          <mxGeometry x="220" y="560" width="120" height="30" as="geometry" />
        </mxCell>
        <mxCell id="G1GQrUk6o97cC7J-lh7t-28" value="AplicaÃ§Ã£o pede query e grÃ¡fico para duckdb via OpenAI" style="text;strokeColor=none;align=center;fillColor=none;html=1;verticalAlign=middle;whiteSpace=wrap;rounded=0;" vertex="1" parent="1">
          <mxGeometry x="620" y="590" width="114.5" height="30" as="geometry" />
        </mxCell>
        <mxCell id="G1GQrUk6o97cC7J-lh7t-29" value="Resposta Estruturada pleo Chat" style="text;strokeColor=none;align=center;fillColor=none;html=1;verticalAlign=middle;whiteSpace=wrap;rounded=0;" vertex="1" parent="1">
          <mxGeometry x="390" y="560" width="80" height="30" as="geometry" />
        </mxCell>
        <mxCell id="G1GQrUk6o97cC7J-lh7t-31" value="DuckDB para leiteura dos dados em hive" style="text;strokeColor=none;align=center;fillColor=none;html=1;verticalAlign=middle;whiteSpace=wrap;rounded=0;" vertex="1" parent="1">
          <mxGeometry x="296.58" y="360" width="145.5" height="30" as="geometry" />
        </mxCell>
      </root>
    </mxGraphModel>
  </diagram>
</mxfile>
